<svg width="331" height="19" viewBox="0 0 331 19" fill="none" xmlns="http://www.w3.org/2000/svg">
<g clip-path="url(#clip0_60_10)">
<path d="M19.1484 5.26929C18.4643 5.74377 18.0997 5.55571 17.9018 5.17957C17.2768 6.00603 16.4191 6.68584 15.3895 6.6496C14.1482 6.60647 12.7332 5.73342 12.8478 4.32895C12.938 3.22643 13.7679 2.23433 14.9746 2.36546C15.4972 2.4224 15.9764 2.61046 16.1482 3.11773C16.2472 3.41277 16.1951 4.17022 15.8027 4.26166C15.2663 4.38762 15.3305 3.76475 15.1031 3.55943C14.4381 2.96072 13.4294 4.01838 13.8877 4.88971C15.2489 7.48297 19.4296 3.26094 17.5598 0.990323C16.5024 -0.291642 14.4867 -0.158787 13.1064 0.431297C12.254 0.79708 11.5213 1.40959 10.8182 2.0014C10.4501 2.31197 8.68613 4.35483 8.29896 4.3117C8.77467 4.36519 9.22261 4.47389 9.60978 4.6447C12.3877 5.86973 10.5039 10.178 8.36146 8.13689C7.91526 7.71244 8.59237 7.04127 9.03857 7.46399C10.016 8.39742 10.3598 6.65996 9.99694 6.14579C9.73478 5.77483 9.43268 5.54363 9.00211 5.42975C8.46042 5.28655 7.89963 5.24686 7.34058 5.28482C5.21202 7.50367 0 9.51203 0 9.51203C0 9.51203 5.21202 11.5204 7.34058 13.7358C7.89963 13.7755 8.46042 13.7358 9.00211 13.5908C9.43268 13.4787 9.73478 13.2475 9.99694 12.8765C10.3598 12.3624 10.016 10.6266 9.03857 11.5583C8.59237 11.9828 7.917 11.3116 8.36146 10.8854C10.5039 8.84603 12.3877 13.1526 9.60978 14.3776C9.22261 14.5484 8.77641 14.6571 8.29896 14.7106C10.2504 16.65 13.0353 19.7039 16.1309 18.8533C19.789 17.8474 17.2403 12.1346 14.4207 13.5926C13.7349 13.9497 13.6325 14.8745 14.1065 15.4301C14.3565 15.7252 15.6152 15.8977 15.2315 15.3214C14.8895 14.809 15.7177 14.3345 16.058 14.8418C16.709 15.8183 15.9902 16.5447 14.9746 16.6551C13.7697 16.788 12.9398 15.7959 12.8495 14.6916C12.7349 13.2872 14.1499 12.4124 15.3913 12.3693C16.4208 12.3348 17.2785 13.0163 17.9035 13.8428C18.0997 13.4649 18.466 13.2768 19.1501 13.753C19.1501 13.753 22.5252 12.4849 21.1241 9.5103C22.5252 6.534 19.1501 5.26757 19.1501 5.26757L19.1484 5.26929Z" fill="white"/>
<path d="M312.316 5.26929C313 5.74377 313.365 5.55571 313.563 5.17957C314.188 6.00603 315.046 6.68584 316.075 6.6496C317.317 6.60647 318.732 5.73342 318.617 4.32895C318.527 3.22643 317.697 2.23433 316.49 2.36546C315.967 2.4224 315.488 2.61046 315.316 3.11773C315.218 3.41277 315.27 4.17022 315.662 4.26166C316.198 4.38762 316.134 3.76475 316.362 3.55943C317.027 2.96072 318.035 4.01838 317.577 4.88971C316.216 7.48297 312.033 3.26094 313.905 0.990323C314.962 -0.291642 316.978 -0.158787 318.358 0.431297C319.211 0.79708 319.943 1.40959 320.647 2.0014C321.015 2.31197 322.779 4.35483 323.166 4.3117C322.69 4.36519 322.242 4.47389 321.855 4.6447C319.077 5.86973 320.961 10.178 323.103 8.13689C323.549 7.71244 322.872 7.04127 322.426 7.46399C321.449 8.39742 321.105 6.65996 321.468 6.14579C321.73 5.77483 322.032 5.54363 322.463 5.42975C323.004 5.28655 323.565 5.24686 324.124 5.28482C326.251 7.50195 331.465 9.5103 331.465 9.5103C331.465 9.5103 326.253 11.5187 324.124 13.7341C323.565 13.7737 323.004 13.7341 322.463 13.5891C322.032 13.477 321.73 13.2458 321.468 12.8748C321.105 12.3606 321.449 10.6249 322.426 11.5566C322.872 11.9811 323.548 11.3099 323.103 10.8837C320.961 8.8443 319.077 13.1509 321.855 14.3759C322.242 14.5467 322.688 14.6554 323.166 14.7089C321.214 16.6482 318.429 19.7022 315.334 18.8516C311.676 17.8457 314.224 12.1329 317.044 13.5908C317.73 13.948 317.832 14.8728 317.358 15.4284C317.108 15.7234 315.849 15.896 316.233 15.3197C316.575 14.8072 315.747 14.3328 315.407 14.84C314.756 15.8166 315.476 16.543 316.49 16.6534C317.695 16.7863 318.525 15.7942 318.615 14.6899C318.73 13.2855 317.315 12.4107 316.073 12.3675C315.044 12.333 314.186 13.0146 313.561 13.841C313.365 13.4632 312.999 13.2751 312.315 13.7513C312.315 13.7513 308.939 12.4831 310.341 9.50858C308.939 6.53228 312.315 5.26584 312.315 5.26584L312.316 5.26929Z" fill="white"/>
<path d="M312 9H21V9.81742H312V9Z" fill="white"/>
<path d="M312 8.18262H21V9.00003H312V8.18262Z" fill="white"/>
</g>
<defs>
<clipPath id="clip0_60_10">
<rect width="331" height="19" fill="white"/>
</clipPath>
</defs>
</svg>
