<svg fill="none" height="96" viewBox="0 0 572 96" width="572" xmlns="http://www.w3.org/2000/svg" xmlns:xlink="http://www.w3.org/1999/xlink"><linearGradient id="a" gradientUnits="userSpaceOnUse" x1="286" x2="286" y1="-18.3529" y2="120"><stop offset="0" stop-color="#e4b83e"/><stop offset=".5" stop-color="#653710"/><stop offset="1" stop-color="#170e08"/></linearGradient><clipPath id="b"><path d="m74 21h424v54h-424z"/></clipPath><path d="m39.0299 3.13728c1.6967-1.9906 4.1808-3.13728 6.7964-3.13728h479.3987c2.578 0 5.03 1.11393 6.726 3.05538l34.127 39.06972c2.939 3.3651 2.939 8.3847 0 11.7498l-34.127 39.0697c-1.696 1.9415-4.148 3.0554-6.726 3.0554h-479.3987c-2.6156 0-5.0997-1.1467-6.7964-3.1373l-33.30145-39.0697c-2.84514-3.338-2.84514-8.248 0-11.586z" fill="url(#a)"/><path d="m39.0299 3.13728c1.6967-1.9906 4.1808-3.13728 6.7964-3.13728h479.3987c2.578 0 5.03 1.11393 6.726 3.05538l34.127 39.06972c2.939 3.3651 2.939 8.3847 0 11.7498l-34.127 39.0697c-1.696 1.9415-4.148 3.0554-6.726 3.0554h-479.3987c-2.6156 0-5.0997-1.1467-6.7964-3.1373l-33.30145-39.0697c-2.84514-3.338-2.84514-8.248 0-11.586z" fill="#023a9d"/><g clip-path="url(#b)" fill="#fff"><path d="m290.005 43.6727c.212-.3992.313-.7541.538-.9804.599-.5944 1.198-1.211 1.889-1.6812 2.81-1.9164 5.831-3.4468 9.042-4.5248 1.581-.5323 3.277-.7142 5.056-1.0824-.216-.2661-.41-.5323-.63-.7719-1.211-1.2864-2.422-2.5684-3.647-3.846-1.863-1.943-4.122-2.9101-6.817-2.7725-1.401.0709-2.797.173-4.334.2706-.053-.4215-.207-.8296-.128-1.1889.243-1.078.93-1.9119 1.727-2.6173 3.338-2.9588 7.262-4.0368 11.578-3.2028 2.63.5057 4.669 2.2358 6.483 4.1699 1.304 1.3929 2.585 2.8036 3.898 4.1876.484.5102 1.013.9848 1.555 1.4373 1.4 1.1756 2.911 1.974 4.743 1.2998.436.4036.216.7541.031 1.0114-1.339 1.8631-3.202 2.6882-5.453 2.6794-.669 0-1.215-.3461-1.691-.7852-1.246-1.1445-2.493-2.2935-3.708-3.469-1.119-1.078-2.176-2.2225-3.308-3.2871-.546-.5146-1.198-.9227-1.898-1.4506-.176.6876.264.8872.48 1.1755.256.3372.568.63.859.9405.339.3593.683.7186 1.017 1.0824.287.3105.564.6343.85.9449.287.3105.582.6166.877.9182.295.3017.594.6078.898.9005.357.3416.714.6832 1.088 1.0115.317.2794.652.5412.978.8073.308.2529.616.5057 1.035.8517-.604.2706-1.031.4614-1.449.6477.053.1907.044.3549.119.417.757.6299 1.568 1.2022 2.281 1.8809.537.5146 1.136.8162 1.841.9493 3.048.59 6.038.4746 8.861-.9316.868-.4347 1.704-1.0158 2.4-1.6901.533-.519.947-1.2421 1.203-1.9519.546-1.4949-.022-2.8302-1.396-3.6065-.304-.173-.661-.2484-.974-.4037-.832-.4036-1.228-1.0158-.995-1.8587.203-.7319.537-1.4683.973-2.0893.397-.5634.956-1.0514 1.533-1.4418 2.087-1.4151 4.417-2.147 6.928-2.3111 1.233-.0799 2.206.3238 2.876 1.3973.114.1819.237.3549.361.5235 1.312 1.7966 2.655 2.2623 4.752 1.5925.594-.1907 1.145-.519 1.744-.7985.352.2617.189.5767-.04.8562-1.422 1.6945-3.281 2.6483-5.408 3.0653-1.026.1996-1.956-.1109-2.687-.8961-.29-.3105-.607-.6033-.841-.9493-.665-.9804-1.599-1.0868-2.62-.8429-.96.2307-1.912.5146-2.718 1.3796.168.2396.339.5146.538.7675.127.1641.295.3061.444.4525 2.048 1.974 2.233 3.8327 1.075 6.5786-.7 1.668-1.854 3.0077-3.255 4.1211-2.382 1.8898-5.06 3.0431-8.13 3.1585-.277.0088-.559.0355-.832.0576-.071.488.255.6521.572.7852.45.1908.925.3283 1.383.5057 1.564.6078 2.053 1.7345 1.264 3.1851-2.413 4.4183-4.175 9.1383-6.302 13.6852-.357.763-.603 1.5793-.947 2.4931.507.173.947.4081 1.401.4613.907.1065 1.823.1242 2.735.1642 1.457.0665 2.233 1.5393 1.369 2.7193-1.347 1.8409-2.801 3.5621-4.677 4.8619-.683.4746-1.471.8428-2.259 1.1001-1.004.3283-1.854.0754-2.629-.7896-1.767-1.9652-3.039-2.1692-5.633-1.1578-.062.0222-.132.0177-.207.0266-.388-.2529-.26-.621-.146-.936.626-1.7522 2.031-2.6749 3.651-3.2827.736-.275 1.542-.1375 2.246.2795.903.5323 1.793 1.0824 2.797 1.6901.198-.1863.423-.3992.753-.7142-.881-.4791-1.594-.9182-2.352-1.2687-.762-.3504-1.563-.6033-2.396-.9183-.255-.6299.163-1.1888.392-1.7478.833-2.0317 1.723-4.0368 2.599-6.0507 1.273-2.9189 2.55-5.8379 3.823-8.7568.198-.448.378-.9049.555-1.3397-1.013-.7541-2.026-1.3885-2.889-2.1869-.877-.8118-1.608-1.7789-2.396-2.6839-1.022-1.1755-2.057-2.3466-3.458-3.083-.488-.2573-1.035-.5101-1.572-.5412-3.867-.244-7.298 1.0425-10.539 2.9988.713 2.2091 1.379 4.2763 2.092 6.4943.348-.4036.643-.7541.947-1.0957.982-1.109 1.894-2.2934 2.968-3.2959 1.493-1.393 3.325-2.1072 5.387-2.1027 1.92.0044 3.391.7851 4.232 2.6084.757 1.6413 1.224 3.3314.903 5.1502-.419 2.3866-1.691 4.161-3.832 5.2922-1.074.5678-1.847 1.2939-2.316 2.1781-2.251-.4391-3.66-1.8764-3.806-3.8682-.07-.9671.278-1.4994 1.194-1.7035.617-.1419 1.26-.1597 1.876-.306 1.106-.2662 1.872-.9848 2.251-2.0495.33-.9183.268-1.8055-.467-2.5463-1.035-.0665-1.788.4658-2.493 1.0514-1.814 1.5038-2.942 3.4246-3.206 5.7934-.326 2.9101-.282 5.8024.652 8.6237.334 1.007.647 2.0184 1.008 3.1496-.22.2662-.418.661-.74.8783-.696.4747-1.409.9582-2.184 1.2687-3.136 1.2554-6.298 2.4399-9.447 3.6687-.692.2706-1.282.102-1.709-.4259-.528-.6521-1.044-1.3486-1.418-2.0983-.894-1.7921-1.863-3.4867-3.581-4.6445-.885-.5989-.929-1.5482-.634-2.4886.269-.8517.978-1.1179 1.797-1.2421 1.039-.1597 2.079-.3505 3.092-.6299.771-.213 1.33-.7275 1.629-1.5349 1.062-2.8524 2.145-5.6959 3.246-8.5305.331-.8517.234-1.6147-.079-2.462-.758-2.0672-1.986-3.6997-4.078-4.7333zm2.546 23.0364c1.753-.3238 4.867-1.628 6.043-2.533-1.123-3.1052-.828-6.4012-.969-9.6883-.295.3416-.476.6965-.608 1.0691-.727 2.0583-1.467 4.1122-2.145 6.1838-.37 1.1357-.951 1.9918-2.132 2.3822-.427.1419-.801.4525-1.268.7275.278.5501.485.9892.722 1.4195.097.1775.26.3239.357.4436z"/><path d="m108.506 49.7501c-.695.4835-1.14.8295-1.62 1.1134-.604.3593-1.216.7142-1.863.9804-1.189.488-1.925.031-2.066-1.2066-.101-.9138-.18-1.8321-.321-2.7415-.313-2.0406-1.115-3.7485-2.9466-4.9196-1.3257-.8473-1.2508-2.391.0572-3.2915.2467-.1686.7134-.2307.9774-.1154.859.3727 1.674.1908 2.471-.0931 2.374-.8384 4.47-2.0495 5.708-4.4094.471-.9006.907-1.0824 1.902-.8872.476.0931.969.2395 1.379.4879.599.3593 1.207.7586 1.682 1.2643 1.863 1.9607 3.383 4.1566 4.382 6.7029.37.9448.542 1.9119.436 2.9144-.154 1.4906-.757 2.7149-2.144 3.4424-.872.4614-1.736.936-2.59 1.4329-.938.5456-1.586 1.2997-2.03 2.3466-1.414 3.3182-2.938 6.592-4.418 9.8835-.088.1952-.193.3771-.282.5723-.766 1.6946-1.854 2.9943-3.836 3.2383-.246.0311-.471.2174-.761.3549 1.448 2.1515 3.386 3.0254 5.839 2.7548.696-.0754 1.383-.2484 2.075-.3682 1.735-.2972 2.77-1.2732 3.523-2.9367 2.977-6.5742 6.104-13.0863 9.174-19.6206.15-.3194.308-.6388.454-.9582.682-1.5127.096-2.808-1.489-3.2516-.33-.0932-.705-.0266-1.044-.0976-.916-.1819-1.453-.9582-1.273-1.872.084-.4082.207-.8473.441-1.18.519-.7497 1.048-1.5216 1.704-2.1426 2.004-1.8942 4.431-2.95 7.126-3.4468 1.762-.3239 3.193.1774 4.329 1.5481.406.488.758 1.0248 1.172 1.5039.414.4746.823.9981 1.339 1.3396 1.427.9494 2.942 1.3575 4.549.3815.238-.1463.485-.2972.745-.3859 1.259-.4392 2.32.315 2.281 1.6325-.009.3504-.079.7053-.176 1.038-.388 1.3353-1.167 2.4132-2.255 3.2605-.388.3017-.784.6255-1.229.8251-1.74.7852-2.642 2.289-3.347 3.9392-1.7 3.9836-2.876 8.1357-3.977 12.3189-.537 2.0495.189 3.6021 1.832 4.7998.344.2484.687.5279 1.075.6699 1.356.5057 1.189 1.5881.616 2.6128-.07.1242-.141.2573-.251.3416-1.916 1.4284-3.646 3.1363-5.906 4.0678-.718.2972-1.449.4924-2.211.3061-.224-.8694-.383-1.6901-.651-2.4709-.366-1.0602-1.11-1.8276-2.167-2.1736-1.062-.3505-2.083-.2174-2.96.5767-.084.0754-.255.0488-.405.0754-.366-.244-.097-.5323.04-.692.599-.6876 1.167-1.4418 1.885-1.983 1.796-1.3574 3.928-1.109 5.509.5368.388.3992.749.8251 1.211 1.3308.3-.2129.551-.3948.912-.6521-.44-.4347-.793-.7674-1.128-1.1134-1.955-2.0051-2.607-4.2719-1.537-6.9824.886-2.2357 1.709-4.4981 2.44-6.7916.709-2.2224 1.366-4.4759 1.837-6.7561.304-1.4639.815-2.6882 1.991-3.6109.083-.0665.092-.2351.132-.3549-.736-.6388-1.542-1.2066-2.172-1.9341-.594-.6832-.995-1.5393-1.484-2.3112-.55-.865-.942-1.0291-1.951-.7319-.537.1597-1.066.3726-1.568.621-.559.2751-1.088.6166-1.761 1.007.356.4081.607.7142.876 1.0025.802.8473 1.242 1.8765 1.493 3.0032.238 1.0824.031 2.0806-.449 3.0831-1.784 3.6952-3.515 7.4171-5.272 11.13-1.726 3.6465-3.497 7.2752-5.162 10.9482-.616 1.3619-1.532 2.36-2.787 3.0786-3.163 1.8144-6.519 2.7637-10.121 1.7434-3.153-.8916-5.7255-2.6971-7.2713-5.7225-.6166-1.211-1.057-2.4798-.6431-3.8815.2026-.6788.4977-1.0026 1.2024-.9139 1.0702.1375 2.1052.0266 3.149-.1597 1.022-.1774 1.792-.6831 2.356-1.6058 2.035-3.3315 3.616-6.8848 5.122-10.478.075-.1774.044-.4036.093-.9715zm-2.417-4.9994c.625-.0976 1.039-.2174 1.449-.213 1.197.0133 1.845.6211 1.858 1.8232.009.763-.128 1.5305-.216 2.4754 1.74-1.3309 3.665-2.1737 5.316-3.682-.661-2.3688-1.762-4.3917-3.761-5.9665-1.722 1.5438-3.766 2.2935-5.91 3.1452.449.8606.828 1.5925 1.259 2.4177z"/><path d="m439.262 68.1687c.084-.5057.04-.8429.185-1.007.511-.5722 1.004-1.2687 1.66-1.5881 2.202-1.0602 4.453-1.2066 6.633.142.418.2573.793.5855 1.22.8251.119.0665.352-.071.766-.1686-1.766-1.4018-3.66-2.4664-4.342-4.7244.304-.3549.66-.6965.929-1.0957.506-.7586 1.123-1.4905 1.414-2.3334 1.488-4.2763 2.889-8.5881 4.311-12.8867.04-.1242-.009-.2794-.026-.5367-1.665-.936-3.07-2.3157-4.523-3.642-.52-.4747-1.119-.8606-1.7-1.2554-.78-.5324-1.652-.7852-2.594-.7586-4.51.1198-8.712 1.3397-12.697 3.5267-.018.3327-.08.6121-.04.8783.26 1.8143-.062 3.4379-1.035 5.0615-.744 1.2466-1.088 2.7548-1.497 4.1788-.727 2.5152-1.366 5.0526-2.092 7.7542.925 1.2376 1.968 2.6306 3.056 4.0856 1.066-.5146 2.061-.9937 3.114-1.4994-.181-.4303-.295-.7541-.449-1.0602-1.269-2.5197-1.863-5.2434-1.819-8.0071.07-4.2364 1.308-8.1179 4.58-11.0413 1.973-1.7611 4.298-2.635 6.989-2.3821.674.0621 1.207.2972 1.687.7496 2.33 2.2136 3.052 6.1573 1.542 9.0141-.419.7896-1.057 1.4949-1.714 2.116-.554.5234-1.255.9138-1.929 1.282-.726.3992-1.03.9138-.775 1.7345.036.1065-.07.2573-.119.4125-.775.244-1.519.1819-2.18-.3415-.74-.5856-1.264-1.3308-1.484-2.2624-.176-.7408.031-1.4462.533-1.9741.476-.5012 1.066-.9093 1.647-1.2908.405-.2706.899-.4037 1.326-.6433.537-.3016.837-.7718.713-1.4106-.185-.9671-.334-1.9563-1.013-2.706-.748-.1819-1.286.1819-1.783.5589-2.158 1.6325-3.312 3.815-3.427 6.5299-.075 1.7833.106 3.5488.797 5.2123.626 1.4994 1.335 2.9678 1.956 4.4671.374.9094.704 1.8499.947 2.7992.163.6388-.154 1.0691-.789 1.3042-1.316.4924-2.673.8872-3.955 1.4594-1.475.6566-2.884 1.4595-4.32 2.2092-.247.1286-.467.3238-.718.4436-.661.3194-1.237.2573-1.726-.2972-.37-.417-.683-.9005-.921-1.4062-1.022-2.1604-2.484-3.9348-4.43-5.31-.287-.1996-.586-.4125-.793-.6876-.454-.5988-.612-1.2509-.194-1.974.568-.9804 1.141-1.9563 1.634-2.9766 1.427-2.9455 2.374-6.0596 3.109-9.2403.238-1.0336.45-2.0761.67-3.1141.436-2.0495-.141-2.808-2.304-3.052-.207-.0222-.414-.0577-.594-.0843-.3-.4037-.15-.763.194-.8916 4.223-1.5881 8.002-4.1566 12.283-5.6028 3.012-1.0158 6.064-1.7921 9.275-1.7966 1.246 0 2.365.2928 3.343 1.078 1.154.9271 2.316 1.8454 3.453 2.7947 1.03.8562 2.034 1.7478 3.056 2.6128 1.224 1.0336 2.563 1.7434 4.298 1.3087.577 1.77.379 3.3137-.863 4.578-.559.5678-1.048 1.1356-1.317 1.8809-1.537 4.334-3.069 8.6724-4.598 13.0065-.07.1951-.079.4081-.11.5899 1.326 1.9209 1.348 1.9342 4.378 2.3778.374.4391.388.9271.027 1.3485-1.736 2.0495-3.546 4.0368-5.748 5.6028-.339.2395-.74.4169-1.132.5589-.942.3371-1.801.244-2.47-.5989-.353-.4436-.714-.8783-1.062-1.3219-1.599-2.0362-3.114-2.4975-5.54-1.699-.194.0621-.401.0798-.912.1774z"/><path d="m371.5 45.6824c-.141-.3815-.207-.6521-.335-.8917-.696-1.3086-1.405-2.6084-2.175-4.0323-1.63.7896-2.92 1.9341-4.352 3.0742.427.7008.859 1.3263 1.216 1.9962.757 1.4328.392 3.2472-.894 4.1965-.37.275-.885.3992-1.352.4702-.436.0665-.864-.142-1.031-.5811-.594-1.566-1.735-2.7371-2.753-3.9969-.687-.8517-1.153-1.7789-1.087-2.9101.035-.5988.246-1.1045.823-1.3751 3.237-1.5127 5.919-3.7973 8.527-6.1927 1.127-1.0381 2.004-1.047 3.171-.0178.621.5501 1.154 1.2377 1.594 1.9474 1.537 2.4576 3.017 4.9507 4.514 7.4304.146.2396.291.4835.414.7408.643 1.3308.573 1.8232-.625 2.7105-.903.6654-1.876 1.2598-2.881 1.7522-.876.4303-1.44.9626-1.761 1.9385-1.185 3.5622-2.471 7.0888-3.708 10.6288-.137.3904-.225.8029-.366 1.322 3.118.8073 5.584 2.7281 8.104 4.334 1.898-.8695 3.69-1.6946 5.668-2.5996.154-.5145.37-1.1799.546-1.8542 2.647-10.0698 5.294-20.1352 7.919-30.2095.308-1.1755.598-2.32 1.832-2.8746-1.542-1.7877-2.079-2.0272-5.263-2.4664-.397-.4303-.599-.9404-.494-1.5349.141-.7763.388-1.5082.987-2.0716.832-.7896 1.784-1.3929 2.863-1.7567.731-.244 1.493-.3948 2.241-.5811 1.401-.3504 2.643.0177 3.77.8695.789.5944 1.595 1.1711 2.348 1.8054.801.6788 1.656.732 2.55.315 1.532-.7142 3.039-1.4772 4.562-2.2047.414-.1996.793-.6388 1.339-.3105-.035.1375-.026.3194-.11.3903-2.017 1.7656-4.052 3.5089-6.064 5.2745-1.013.8916-2.101 1.0735-3.325.5234-.177-.0798-.392-.0754-.591-.1064-.299.4391.084.6476.238.9049.361.6078.797 1.1711 1.11 1.8011.247.4968.445 1.0602-.066 1.73-.352.0799-.819.1996-1.29.2972-1.524.3194-2.365 1.1712-2.762 2.777-1.347 5.4297-2.845 10.824-4.298 16.2226-.938 3.4868-1.903 6.9691-2.85 10.4558-.145.5368-.246 1.0913-.374 1.6813.37.377.709.723 1.048 1.0735.837.8606 1.154 1.9297 1.194 3.0963.03.8961-.295 1.3575-1.176 1.4595-3.127.3638-5.946 1.6502-8.787 2.8879-.968.4214-1.929.865-2.915 1.2332-.648.244-1.335.3726-2.03.5589-.441-.5101-.837-.9049-1.159-1.353-2.219-3.0742-5.267-4.3473-8.967-4.2098-1.193.0444-2.391.1375-3.585.173-.621.0178-1.286.0932-1.814-.6033.018-.8073.436-1.5304.969-2.1825.357-.4347.74-.8828 1.198-1.1889 1.414-.9493 2.14-2.2934 2.752-3.8682 1.674-4.2985 3.008-8.6947 4.109-13.1662.194-.7852.564-1.2554 1.207-1.6058.793-.4348 1.59-.8651 2.422-1.3131z"/><path d="m477.974 62.9249c1.278-.7985 2.339-1.4861 3.422-2.1293.542-.3194.78-.7985.877-1.3752.524-3.154 1.453-6.1971 2.418-9.2314.149-.4702.273-.9582.317-1.4461.031-.3372 0-.7453-.168-1.0203-.889-1.4639-1.867-2.848-3.664-3.3049-.405-.102-.815-.2484-1.185-.4436-.845-.4524-1.255-1.5038-.814-2.3644.383-.7452.872-1.4639 1.435-2.0805 1.665-1.8055 3.757-2.9367 6.083-3.6686 1.453-.4569 2.787-.3416 3.924.7497 1.242 1.1933 2.739 1.4772 4.307 1.0469.912-.2484 1.726-.865 2.761-1.4062.348.0621.366.4968.203.9138-1.211 3.0964-4.814 4.8397-7.963 3.8727-.537-.1642-1.07-.3372-1.603-.5102-1.123-.3637-2.057-.0399-2.889.7453.894 1.0291 1.788 2.0051 2.625 3.0298.845 1.0336 1.634 2.116 2.484 3.2294-.137 1.2421-.762 2.3689-1.128 3.5799-.713 2.3689-1.378 4.751-2.052 7.1288-.37 1.313-.467 2.6616-.322 4.0057.124 1.1489-.387 1.9075-1.202 2.5419-.44.3415-.925.6609-1.436.8827-2.272.9937-4.298 2.4044-6.364 3.7485-.528.346-1.092.6343-1.66.9094-1.467.7097-3.021-.763-2.801-2.0983.044-.2794.101-.5589.106-.8428.066-3.7795-1.3-7.0001-3.603-9.9146-.801.5723-.823 1.3397-1.022 1.9918-.881 2.9145-1.717 5.8378-2.532 8.7701-.181.6432-.361 1.1933-1.031 1.486-1.4.6078-2.224.3815-2.994-.9581-.353-.6122-.648-1.2599-.894-1.9209-.89-2.3865-1.727-4.7909-2.621-7.173-.291-.7763-.176-1.3752.498-1.8543.63-.448 1.25-.9138 1.894-1.3486 1.457-.9892 2.915-1.9784 4.395-2.9322.625-.4037 1.035-.9094 1.237-1.6369.357-1.282.771-2.5463 1.115-4.1122-.864.4746-1.167 1.0957-1.581 1.6058-.489.5989-.934 1.251-1.489 1.7833-.96.9227-1.872.8429-2.717-.1375-.137-.1597-.309-.3105-.388-.5013-.771-1.7389-1.625-3.4512-2.255-5.2478-.431-1.2332-.018-2.3201 1.202-3.0653 2.766-1.6857 5.488-3.4468 8.245-5.1458.758-.4658 1.035-.4037 1.682.2218 2.59 2.5019 4.431 5.4829 5.466 8.943.326 1.0913.229 1.3264-.683 1.9697-.92.6476-1.88 1.242-2.818 1.872-.348.2351-.705.4791-1.005.7718-.612.5989-.59 1.1756.005 1.8277.951 1.038 1.96 2.0361 2.819 3.1451 1.352 1.7434 2.36 3.6864 2.893 5.8556.084.3372.238.6566.454 1.2332zm-9.041-21.4527c-1.758 1.1534-3.44 2.0007-4.907 3.2738.273.8384.476 1.6325.987 2.2801 1.489-.0931 2.792-1.3663 4.334-.2706.497-.5855 1.409-.5722 1.801-1.455-.308-.5944-.612-1.2243-.96-1.8276s-.74-1.1845-1.26-2.0007zm-4.431 18.1479c-.154.0887-.216.1197-.273.1552-.348.2218-.423.5146-.207.8695.026.0444.114.0887.163.0798.44-.0976.462-.4436.454-.8029 0-.0621-.053-.1198-.137-.3016z"/><path d="m324.983 61.8296c.599-.4747 1.22-.9227 1.788-1.4328 2.145-1.912 2.81-4.4982 3.158-7.2131.035-.2794.07-.5811.009-.8472-.392-1.7257.515-2.8169 1.739-3.7884 2.273-1.8055 4.849-2.848 7.73-3.0653.691-.0533 1.4.0621 2.096.1464.568.0709 1.039.3371 1.467.7585 2.043 2.0051 3.668 4.2852 4.717 6.969.594 1.5172 1.219 3.0166 1.849 4.5204.097.2351.282.4347.564.8561.344-1.1578.647-2.0938.898-3.0475.507-1.9164.912-3.8638 1.498-5.758.357-1.149.172-2.0317-.59-2.9234-1.282-1.5038-2.449-3.1096-3.761-4.5824-1.612-1.8099-3.669-2.5907-6.083-2.218-1.109.1685-2.237.3327-3.298.6787-4.453 1.4594-8.21 4.0146-11.248 7.6034-1.476 1.7433-2.559 3.7218-3.215 5.9043-.564-.0532-.595-.3992-.511-.763.224-.9626.378-1.9607.731-2.8745 2.497-6.4988 6.971-11.0458 13.397-13.632 1.52-.6122 3.118-.9316 4.73-1.007 3.281-.1552 6.294.6743 8.76 2.9677.925.8606 1.753 1.841 2.55 2.8258 1.555 1.9164 3.061 3.8771 4.726 5.9975.127.7054-.326 1.4506-.837 2.1116-.978 1.2643-1.476 2.7104-1.916 4.2187-1.149 3.9436-2.352 7.8695-3.523 11.8087-.445 1.4906-.921 2.9766-1.264 4.4893-.41 1.8188-1.744 2.4576-3.299 2.8701-.335.0888-.7.0799-1.048.0888-1.229.0221-1.845-.4348-2.158-1.566-.247-.8916-.053-1.4683.876-1.8365.753-.3016 1.097-.834 1.352-1.5127.798-2.116 1.586-4.2364 2.401-6.4145-.3-.417-.591-.8074-.864-1.2066-.828-1.2288-1.682-2.4443-2.466-3.6997-.823-1.3175-1.572-2.6882-2.374-4.019-.665-1.1002-1.497-2.0539-2.598-2.7415-1.132-.7053-2.308-1.0336-3.603-.4525-.449.1996-.92.346-1.374.5412-1.11.4747-1.753 1.1933-1.92 2.5197-.379 3.0254-1.11 5.9798-2.51 8.7745.836 1.1489 1.66 2.2757 2.589 3.5533.41-.0533.934-.1242 1.365-.1775.111-.1863.181-.244.177-.3016-.066-.9804-.08-2.0096-.718-2.7992-.405-.4968-.96-.8961-.859-1.6058.123-.8606.837-1.2732 1.506-1.668.934-.55 1.951-.8118 3.03-.7452.828.0488 1.317.4303 1.467 1.2598.154.834.251 1.6857.286 2.533.057 1.3752.427 2.6394 1.044 3.8638.912 1.8099.198 3.6287-1.705 4.2054-.867.2617-1.796.3371-2.704.4169-1.14.1021-2.228.3594-3.224.9183-.629.3549-1.246.7142-1.977.3904-.925-.4081-1.709-.9848-2.039-2.0184-.128-.4037-.251-.8118-.366-1.2199-.339-1.2155-.995-2.1027-2.153-2.7282-1.753-.9404-2.251-1.943-2.299-3.9126z"/><path d="m159.057 63.475c-.696 1.77-2.043 2.3201-3.536 2.4975-1.78.2129-2.621-1.0647-3.343-2.5463-.978.2351-1.484.9715-2.088 1.6901 1.19 1.5571 2.348 3.0565 3.907 4.3962 2.184-.8917 4.263-2.0317 6.514-3.123-1.313-1.9696-.798-3.7307.083-5.5318 2.638-5.4031 5.219-10.8372 7.818-16.2625.242-.5057.449-1.0292.709-1.628-.256-.3239-.467-.6921-.767-.9582-.634-.559-1.286-1.1135-1.99-1.5748-3.827-2.5241-7.84-2.8568-12.032-.9626-2.136.9626-4.123 2.1381-5.787 3.8283-1.401 1.4195-2.599 2.981-3.418 4.8175-.374.8384-.762 1.6768-1.185 2.4931-.141.2661-.418.4613-.608.6609-.55-.2617-.528-.6565-.497-.9848.255-2.7104 1.118-5.2567 2.202-7.7276.194-.4391.559-.8162.89-1.1755 3.36-3.6509 7.473-5.9798 12.318-6.9291 1.96-.386 3.902-.2751 5.8.5057 2.863 1.1755 3.946 1.7478 6.919 3.988.749-.1819 1.489-.3859 2.242-.5412.925-.1907 1.823-.0133 2.682.3371.559.2307.753.9449.361 1.4196-2.805 3.4157-4.704 7.3727-6.655 11.2942-1.07 2.1559-2.153 4.3029-3.166 6.4854-.802 1.7257-1.506 3.4957-2.251 5.2346.674 1.0203 1.775 1.0203 2.581 1.526.427 1.4683.273 2.1426-.89 2.8879-1.365.8739-2.765 1.699-4.21 2.4265-2.387 1.2021-4.818 2.3289-7.245 3.4468-.696.3194-1.435.6122-2.418.3149-1.589-2.5463-3.866-4.6622-6.038-6.8803-.489-.4968-.903-1.0912-1.264-1.6945-.414-.7009-.418-1.4373.45-2.0051.88-.5767 1.695-1.2687 2.528-1.9208 1.057-.8296 2.087-1.6946 2.761-2.8968.484-.8694 1.317-1.1223 2.167-.9759 1.383.2351 2.51.9183 2.964 2.3821.061.2041.11.4126.172.6167.651 2.1426.955 2.4398 3.303 3.0741z"/><path d="m262.026 73.3766c.542-1.109 1.273-1.628 2.092-2.0628 1.057-.5589 2.105-1.14 3.149-1.7212.951-.5323 1.638-1.2642 2.008-2.3466.595-1.739 1.352-3.4202 1.925-5.1636 1.991-6.0774 4.519-11.8975 7.888-17.3804-1.308-1.4817-2.607-2.95-3.915-4.4183-1.097-1.2332-2.471-1.5083-4.03-1.2022-2.445.4791-4.726 1.3841-6.853 2.6572-1.885 1.1268-3.541 2.5419-5.034 4.1699-2.114 2.3067-3.964 4.7776-5.219 7.6743-.159.3638-.26.834-.929.8695-.013-.3238-.071-.6477-.027-.9582.529-3.9392 1.951-7.5235 4.352-10.682.938-1.2332 1.937-2.4354 3.003-3.5577 2.775-2.9145 6.192-4.5824 10.156-5.1769 1.894-.2839 3.66.0267 5.246 1.0913.99.661 1.924 1.4196 2.827 2.2003.691.5989 1.295 1.2998 1.933 1.9563.846.8606 1.771 1.6014 2.837 2.1825 1.841 1.007 2.259 3.3359.801 4.7599-3.58 3.4867-5.787 7.8208-7.553 12.3943-1.427 3.6908-2.691 7.4526-3.915 11.2143-.357 1.0957-.956 1.6857-2.004 1.8809-.828.1553-1.665.2839-2.506.3549-1.832.1553-3.629.4525-5.351 1.1135-.185.0709-.396.0665-.885.1375z"/><path d="m400.378 71.0698c.797-.5012 1.158-.8029 1.576-.9848 2.987-1.3086 4.792-3.6464 5.695-6.7161 1.176-4.0058 2.295-8.0248 3.422-12.0439.59-2.1071 1.154-4.2231 1.757-6.45-1.259-1.2998-2.514-2.6128-3.796-3.8993-.344-.346-.766-.621-1.172-.9005-1.576-1.0824-3.281-1.3441-4.985-.4436-4.043 2.1337-7.425 4.8885-8.447 9.7105-.084.3992-.229.7896-.432 1.4595-.29-.4082-.515-.5767-.546-.7808-.247-1.7655-.277-3.5311.044-5.2922.326-1.7877 1.106-3.327 2.378-4.6445 2.304-2.3822 4.924-4.201 8.152-5.066 1.916-.5146 3.784-.3327 5.58.3992.758.3106 1.449.8606 2.066 1.4151.943.8473 1.775 1.8188 2.691 2.6972 1.026.9803 2.136 1.7744 3.585 2.1071 1.537.3549 2.224 2.737 1.251 4.0057-.172.2218-.375.4259-.599.5945-1.229.9448-1.916 2.2535-2.405 3.673-1.264 3.6819-2.457 7.3816-3.237 11.2055-.154.7585-.233 1.5393-.291 2.3156-.211 2.7991-1.673 4.7377-4.056 6.0552-2.356 1.2997-5.364 1.9474-8.231 1.5703z"/><path d="m81.2976 60.4852c.9778 1.4195 2.5544 2.0362 3.2855 3.6731-1.7088.4347-3.3603.7186-4.7961 1.832 1.1671 1.0647 2.2505 2.0495 3.3736 3.0698 1.7705-1.0647 3.5057-2.1071 5.2541-3.1585 0-.1375.0529-.3105-.0088-.3992-1.8761-2.6262-1.6119-5.4697-.8059-8.3487.2334-.8339.7443-1.5171 1.4665-2.0228.8148-.5678 1.7177-.5944 2.3386-.0577.7708.6654 1.0791 1.9075.4537 2.6617-.9469 1.14-.9117 2.3466-.4933 3.5932.3391 1.0069.8984 1.9119 1.656 2.6926.4404.4525.8588.9449 1.1891 1.4772.5769.9405.436 1.7257-.3788 2.462-.2598.2352-.5593.4392-.872.5856-.7663.3549-1.5326.7364-2.3342.9759-2.5104.7542-4.8886 1.7878-7.0686 3.2605-.2819.1908-.6254.2928-.991.4614-.3831-.4702-.7267-.9094-1.0878-1.3353-1.8057-2.116-3.836-3.9569-6.3816-5.1369-.5241-.2351-1.0878-.4747-1.0966-1.1401-.0088-.763.621-1.0912 1.2199-1.2864 1.2023-.3904 2.4355-.6921 3.6466-1.0469.5329-.1553 1.0526-.3416 1.7661-.5767-1.1891-1.0558-2.7482-.9981-3.7611-1.8809.0132-.2174-.0309-.4081.0396-.4835 1.0702-1.0824 1.6472-2.4221 2.1404-3.8372 1.1451-3.2738 2.2505-6.5654 3.5498-9.7771 1.4974-3.7041 3.7127-6.9867 6.452-9.8923 1.0702-1.1357 2.2682-2.1027 3.7612-2.6706.9733-.3726 1.8233-.2617 2.5235.457.3788.3859.6871.9138.8412 1.4328.1233.4214-.0308.9271-.066 1.5083-1.5811-.3505-2.6866.3415-3.7524 1.1844-1.2948 1.0158-2.3253 2.2579-3.2238 3.6287-1.0438 1.6014-1.9598 3.2693-2.7702 5.0038-1.9819 4.232-3.6378 8.5882-5.0648 13.0952z"/><path d="m206.071 42.9409c-.097.4259-.083.6566-.193.7896-.754.9272-1.432 1.9563-2.321 2.7326-5.074 4.4494-10.76 7.701-17.516 8.7657-.969.1508-1.937.3282-2.911.4569-.264.0355-.542-.0533-.81-.0843.044-1.5083.097-1.5526-.648-2.5818-.739-1.0247-1.55-2.0184-2.444-2.91-.572-.5723-1.348-.936-2.171-1.4905.088-.1464.207-.4614.423-.6876 1.581-1.668 3.571-2.7282 5.597-3.7307.736-.3638 1.374-.1775 1.885.4391 1.123 1.3619 2.246 2.7238 3.352 4.1034.524.6565 1.004 1.3574 1.541 2.0893 1.599-.0532 3.013-.6787 4.44-1.2376 1.374-.5412 2.748-1.0913 4.082-1.7212 1.401-.661 2.81-1.3308 4.109-2.1559 1.207-.7675 2.277-1.7478 3.585-2.7725zm-25.178 3.6731c1.563 1.8764 2.937 3.5355 4.369 5.2567.431-.0399.916-.0666 1.392-.1331.189-.0266.365-.1375.629-.2395-.11-1.0115-.859-1.6236-1.409-2.289-1.009-1.2155-1.744-2.7193-3.338-3.5489-.516.2972-1.04.6033-1.643.9538z"/><path d="m171.865 66.6292c1.946-2.3556 4.364-3.5977 6.892-4.7511 2.449 1.9475 3.942 4.6623 6.038 6.7695 2.083-.213 3.942-.8473 5.747-1.6192 1.872-.8029 3.704-1.699 5.567-2.5241 1.788-.7896 3.132-2.2358 5.012-3.5888-.37 1.2998-.955 1.9918-1.621 2.5685-1.484 1.2953-2.946 2.6394-4.567 3.7485-4.487 3.0697-9.57 4.6756-14.833 5.7491-.806.1641-1.66.3504-2.488-.0133-1.119-2.7415-2.695-5.0571-5.747-6.3391zm10.384 2.5108c-1.36-2.4399-3.034-4.2897-4.941-5.4386-.383.2794-.824.5988-1.251.9227-.035.0266-.017.1197-.017.133 1.338 1.5748 2.655 3.1186 4.095 4.8132.608-.1243 1.335-.2751 2.114-.4303z"/><path d="m249.782 39.924c-.246.0488-.449.102-.656.1331-1.391.2218-2.14-.1154-2.796-1.2865-.172-.3061-.251-.6698-.432-.967-.581-.9627-1.172-1.9253-1.801-2.8569-.864-1.2775-2.061-1.5526-3.524-1.2243-1.757.3948-3.303 1.1844-4.734 2.2402-.612.4525-1.229.8961-1.863 1.3574-1.11-1.2731-2.092-2.4708-3.153-3.5976-.674-.7142-1.449-1.3397-2.198-1.9785-.463-.3948-1.009-.4924-1.586-.2928-.929.3239-1.876.6078-2.774 1.0026-3.889 1.699-7.439 4.0057-10.971 6.3347-.295.1907-.577.4125-.823.6609-1.057 1.0603-1.066 2.2757-.031 3.3493.392.4081.845.7541 1.22 1.1755.748.8295 1.559 1.628 2.004 2.8391-1.648 1.5393-2.361 3.6375-3.22 5.6426-.498 1.1667-.837 2.4044-1.268 3.6021-.864 2.3955-1.736 4.7821-2.59 7.1287-.973.5102-1.845.9671-2.722 1.4196-1.722.8872-3.14 2.1426-4.338 3.6508-.185.2307-.497.5501.018.9227.498-.3194 1.017-.6698 1.55-.9936 1.964-1.18 4.087-1.9076 6.368-2.0672 2.167-.1553 3.625 1.1533 3.814 3.327.045.4924.031.9937.08 1.4861.088.896.431 1.2687 1.334 1.3175.626.0355 1.269-.0222 1.881-.1464.687-.1375 1.347-.3948 2.017-.6122 1.938-.6299 3.862-1.3175 5.818-1.8942 1.541-.4525 2.559-1.3131 3.069-2.8967 1.027-3.1762 2.599-6.1173 3.986-9.1383.771-1.6724 1.515-3.3536 2.255-5.0393.427-.9627.837-1.9386 1.07-3.1097-2.149-1.1534-4.007-2.6173-5.263-4.7599-.392-.6698-1.158-.7452-1.889-.7053-1.577.0843-2.99.6831-4.259 1.2554-.546 1.5526-.925 2.9943-1.55 4.3207s-1.489 2.5419-2.295 3.886c.604 1.3042 1.159 2.5995 1.797 3.8549.397.7763.956 1.0025 1.753.7807 1.771-.4968 3.149-1.5393 4.105-3.1274.453-.7497.361-1.4949-.137-2.1825-.22-.3017-.533-.4303-.925-.2795-.224.0887-.471.1242-.841.2174.339-1.5083.925-2.6794 1.797-3.8416.432.4569.815.8561 1.189 1.2642.423.457.841.9183 1.291 1.4063-1.749 4.8042-4.154 9.2136-6.162 13.8005-2.149.559-4.241 1.1046-6.425 1.6768-.947-1.7611-1.604-3.7972-3.748-4.4804.017-.3327-.018-.5633.052-.7497 1.3-3.4423 2.599-6.8847 3.925-10.3138.365-.9493 1.118-1.3485 2.122-1.4949.943-.1375 1.194-.4968 1.273-1.4107.044-.4879.097-1.0247-.048-1.4727-.326-1.0026-.683-2.014-1.198-2.9234-.551-.9715-1.304-1.8321-2.017-2.8125.26-.2306.489-.4968.77-.6742 2.088-1.3087 4.14-2.6927 6.294-3.8771 2.449-1.3442 2.55-1.22 4.475.794 1.29 1.353 2.171 2.7814 1.585 4.751-.348 1.18.471 1.6281 1.357 1.5393.541-.0532 1.118-.204 1.585-.4791.661-.3903 1.251-.9094 1.841-1.4106.859-.7275 1.66-1.5349 2.55-2.2269.995-.7719 2.065-1.4506 3.338-1.5216.969.7187 1.286 1.7789 1.863 2.6528.617.936 1.317 1.8143 1.964 2.6927-.026.1863-.022.3327-.07.4657-2.114 5.8601-4.228 11.7201-6.364 17.5712-.388 1.0602-.859 2.0938-1.326 3.123-.453.9981-1.109 1.6857-2.259 2.0273-1.938.5811-3.492 1.7655-4.488 3.9614 3.801-1.2333 6.118-.9316 9.355 2.6527 1.986.0133 4.126-.7142 6.038-2.1293.881-.6521 1.871-1.2465 2.149-2.4842-1.709-.2085-1.969-.3238-3.087-1.5304-.952-1.0292-1.877-2.0849-2.841-3.1673.26-.7808.493-1.5172.753-2.2447 1.634-4.5292 3.299-9.0451 4.902-13.5832.572-1.6236 1.18-3.1806 2.634-4.2408.405-.2972.665-.7275.629-1.2776-.07-1.078-.259-2.0983-1.202-2.7947z"/></g></svg>