<svg width="355" height="46" viewBox="0 0 355 46" fill="none" xmlns="http://www.w3.org/2000/svg">
<g clip-path="url(#clip0_130_7)">
<path d="M180.854 19.3938C181.031 19.0611 181.116 18.7653 181.304 18.5768C181.805 18.0814 182.307 17.5676 182.886 17.1757C185.238 15.5788 187.768 14.3034 190.456 13.4051C191.78 12.9615 193.199 12.8099 194.689 12.5031C194.508 12.2813 194.346 12.0595 194.162 11.8599C193.148 10.7878 192.134 9.71948 191.109 8.65483C189.549 7.03567 187.657 6.22979 185.4 6.34439C184.228 6.40354 183.059 6.48856 181.772 6.56989C181.728 6.2187 181.599 5.87861 181.665 5.57917C181.868 4.68087 182.443 3.98589 183.11 3.39812C185.906 0.932413 189.191 0.0341136 192.805 0.729094C195.006 1.15052 196.713 2.59223 198.233 4.204C199.324 5.36476 200.397 6.54032 201.496 7.69369C201.902 8.11881 202.344 8.51436 202.798 8.89142C203.97 9.87105 205.235 10.5365 206.769 9.97456C207.134 10.311 206.95 10.603 206.795 10.8174C205.674 12.37 204.114 13.0576 202.23 13.0502C201.669 13.0502 201.212 12.7619 200.814 12.3959C199.77 11.4421 198.727 10.4847 197.709 9.50507C196.772 8.60678 195.887 7.65303 194.94 6.76582C194.483 6.337 193.937 5.9969 193.35 5.55699C193.203 6.12998 193.572 6.29633 193.752 6.53662C193.966 6.81757 194.228 7.06155 194.471 7.32032C194.755 7.61975 195.043 7.91919 195.323 8.22232C195.563 8.48109 195.795 8.75095 196.035 9.00972C196.275 9.26849 196.522 9.52356 196.769 9.77493C197.016 10.0263 197.267 10.2814 197.521 10.5254C197.82 10.81 198.118 11.0947 198.432 11.3682C198.697 11.6011 198.977 11.8192 199.25 12.041C199.508 12.2517 199.767 12.4624 200.117 12.7508C199.612 12.9763 199.254 13.1352 198.904 13.2905C198.948 13.4495 198.941 13.5862 199.003 13.638C199.638 14.1629 200.316 14.6398 200.913 15.2054C201.363 15.6342 201.865 15.8856 202.455 15.9965C205.006 16.4882 207.51 16.392 209.874 15.2202C210.6 14.8579 211.301 14.3736 211.884 13.8117C212.33 13.3792 212.676 12.7767 212.89 12.1852C213.347 10.9394 212.872 9.82669 211.721 9.17976C211.467 9.03559 211.168 8.97275 210.906 8.84336C210.209 8.50696 209.878 7.99682 210.073 7.29444C210.243 6.68449 210.523 6.07083 210.888 5.5533C211.22 5.08381 211.688 4.67718 212.171 4.35187C213.919 3.17262 215.87 2.56266 217.971 2.42588C219.004 2.35934 219.819 2.69574 220.379 3.59034C220.475 3.74191 220.578 3.88608 220.682 4.02656C221.781 5.52372 222.905 5.91188 224.66 5.35367C225.158 5.19472 225.619 4.92116 226.121 4.68827C226.416 4.90637 226.279 5.16884 226.087 5.40173C224.896 6.81387 223.34 7.60866 221.559 7.95615C220.7 8.12251 219.922 7.86374 219.31 7.20942C219.067 6.95065 218.801 6.70667 218.606 6.41833C218.049 5.60135 217.267 5.51263 216.412 5.71595C215.608 5.90818 214.811 6.14477 214.137 6.86563C214.277 7.06525 214.42 7.29444 214.586 7.50516C214.693 7.64194 214.833 7.76023 214.959 7.88222C216.673 9.52725 216.828 11.0762 215.859 13.3644C215.272 14.7544 214.306 15.8708 213.134 16.7987C211.139 18.3735 208.897 19.3346 206.327 19.4307C206.094 19.4381 205.858 19.4603 205.63 19.4788C205.571 19.8854 205.844 20.0222 206.109 20.1331C206.485 20.2921 206.883 20.4067 207.267 20.5545C208.576 21.061 208.985 21.9999 208.325 23.2088C206.304 26.8907 204.829 30.824 203.048 34.6131C202.75 35.2489 202.543 35.9291 202.256 36.6907C202.68 36.8348 203.048 37.0307 203.428 37.0751C204.188 37.1638 204.955 37.1786 205.718 37.2119C206.939 37.2673 207.588 38.4946 206.865 39.478C205.737 41.0121 204.52 42.4464 202.949 43.5296C202.377 43.9251 201.717 44.2319 201.057 44.4463C200.216 44.7199 199.505 44.5092 198.856 43.7883C197.377 42.1507 196.311 41.9806 194.14 42.8235C194.088 42.842 194.029 42.8383 193.966 42.8457C193.642 42.635 193.749 42.3281 193.845 42.0657C194.368 40.6055 195.544 39.8365 196.901 39.3301C197.517 39.1009 198.192 39.2155 198.782 39.563C199.538 40.0066 200.283 40.465 201.124 40.9714C201.29 40.8162 201.478 40.6387 201.754 40.3763C201.017 39.977 200.419 39.611 199.785 39.319C199.147 39.027 198.476 38.8163 197.779 38.5538C197.565 38.0289 197.916 37.5631 198.107 37.0973C198.804 35.4042 199.549 33.7333 200.283 32.055C201.349 29.6225 202.418 27.1901 203.484 24.7577C203.649 24.3843 203.801 24.0036 203.948 23.6413C203.1 23.0128 202.252 22.4842 201.529 21.8188C200.795 21.1423 200.183 20.3364 199.523 19.5823C198.668 18.6027 197.801 17.6267 196.629 17.0131C196.219 16.7987 195.762 16.588 195.312 16.5621C192.075 16.3588 189.202 17.4308 186.488 19.0611C187.086 20.902 187.642 22.6247 188.24 24.473C188.531 24.1366 188.778 23.8446 189.033 23.56C189.855 22.6358 190.618 21.6488 191.518 20.8133C192.768 19.6525 194.302 19.0574 196.028 19.0611C197.635 19.0648 198.867 19.7154 199.571 21.2347C200.205 22.6025 200.596 24.0109 200.327 25.5266C199.977 27.5154 198.911 28.9941 197.119 29.9368C196.219 30.4099 195.573 31.015 195.179 31.7519C193.295 31.3859 192.115 30.1881 191.994 28.5283C191.935 27.7224 192.226 27.2788 192.993 27.1088C193.509 26.9905 194.047 26.9757 194.564 26.8537C195.489 26.6319 196.131 26.033 196.448 25.1458C196.724 24.3806 196.673 23.6413 196.057 23.0239C195.191 22.9685 194.56 23.4121 193.97 23.9C192.451 25.1532 191.507 26.7539 191.286 28.7279C191.013 31.153 191.05 33.5632 191.831 35.9143C192.112 36.7535 192.373 37.5963 192.676 38.539C192.491 38.7608 192.325 39.0898 192.056 39.271C191.474 39.6665 190.876 40.0694 190.227 40.3282C187.602 41.3744 184.954 42.3614 182.318 43.3854C181.739 43.6109 181.245 43.4704 180.887 43.0305C180.444 42.4871 180.013 41.9067 179.7 41.282C178.951 39.7885 178.14 38.3763 176.702 37.4115C175.961 36.9125 175.924 36.1214 176.171 35.3377C176.396 34.6279 176.989 34.4061 177.675 34.3026C178.545 34.1695 179.416 34.0105 180.264 33.7776C180.909 33.6002 181.377 33.1714 181.628 32.4986C182.517 30.1216 183.424 27.752 184.346 25.3898C184.622 24.6801 184.541 24.0442 184.279 23.3381C183.645 21.6155 182.616 20.2551 180.865 19.3938H180.854ZM182.985 38.5908C184.453 38.3209 187.06 37.2341 188.044 36.4799C187.104 33.8922 187.351 31.1456 187.233 28.4063C186.986 28.691 186.835 28.9867 186.724 29.2972C186.116 31.0125 185.496 32.7241 184.928 34.4504C184.619 35.3968 184.132 36.1103 183.144 36.4356C182.786 36.5539 182.473 36.8126 182.082 37.0418C182.314 37.5002 182.487 37.8662 182.686 38.2248C182.768 38.3727 182.904 38.4946 182.985 38.5945V38.5908Z" fill="white"/>
<path d="M28.891 24.4582C28.3084 24.8612 27.9359 25.1495 27.534 25.3861C27.0288 25.6855 26.5163 25.9813 25.9742 26.2031C24.9786 26.6097 24.3628 26.229 24.2448 25.1976C24.16 24.4361 24.0936 23.6708 23.9756 22.913C23.7138 21.2125 23.0427 19.7893 21.5087 18.8134C20.3988 18.1073 20.4615 16.8208 21.5567 16.0704C21.7632 15.9299 22.154 15.8782 22.3753 15.9743C23.0943 16.2848 23.7765 16.1333 24.4439 15.8967C26.4315 15.198 28.1867 14.1888 29.2228 12.2221C29.6174 11.4717 29.9825 11.3201 30.8158 11.4828C31.2141 11.5604 31.6271 11.6824 31.97 11.8894C32.4715 12.1889 32.9803 12.5216 33.3786 12.943C34.9384 14.5769 36.2105 16.4068 37.0476 18.5287C37.3573 19.3161 37.5011 20.122 37.4126 20.9575C37.2836 22.1995 36.7784 23.2198 35.6168 23.8261C34.8867 24.2106 34.164 24.6061 33.4486 25.0201C32.6632 25.4748 32.1212 26.1033 31.7487 26.9757C30.5651 29.7408 29.2892 32.469 28.0502 35.212C27.9765 35.3746 27.888 35.5262 27.8142 35.6888C27.1726 37.101 26.2618 38.1841 24.6025 38.3874C24.396 38.4133 24.2079 38.5686 23.9646 38.6832C25.1777 40.4761 26.8002 41.2043 28.8541 40.9788C29.4367 40.916 30.012 40.7718 30.5909 40.672C32.0437 40.4243 32.9103 39.611 33.5408 38.2248C36.0335 32.7463 38.6516 27.3195 41.2217 21.8742C41.3471 21.6081 41.4799 21.3419 41.6016 21.0757C42.1731 19.8152 41.6827 18.7357 40.3552 18.3661C40.0786 18.2884 39.7652 18.3439 39.4813 18.2847C38.7143 18.1332 38.2644 17.4862 38.4156 16.7247C38.4857 16.3846 38.5889 16.0187 38.7844 15.7414C39.2195 15.1167 39.662 14.4734 40.2114 13.9559C41.8892 12.3774 43.9209 11.4976 46.1777 11.0836C47.6526 10.8137 48.851 11.2314 49.8024 12.3737C50.1416 12.7803 50.4366 13.2276 50.7833 13.6269C51.1299 14.0224 51.4728 14.4586 51.9042 14.7433C53.099 15.5344 54.3674 15.8745 55.7133 15.0612C55.9125 14.9392 56.119 14.8135 56.3365 14.7396C57.3911 14.3736 58.2798 15.0021 58.2466 16.1C58.2392 16.392 58.1802 16.6878 58.0991 16.965C57.7746 18.0777 57.1219 18.976 56.2112 19.6821C55.8867 19.9335 55.5548 20.2033 55.1824 20.3697C53.7258 21.024 52.9699 22.2772 52.3799 23.6524C50.9566 26.972 49.972 30.4321 49.0502 33.9181C48.6003 35.626 49.2087 36.9198 50.5841 37.9179C50.8717 38.125 51.1594 38.3578 51.4839 38.4761C52.6196 38.8976 52.4795 39.7996 52.0001 40.6535C51.9411 40.757 51.8821 40.8679 51.7899 40.9381C50.1859 42.1285 48.7367 43.5517 46.8451 44.328C46.244 44.5757 45.6319 44.7384 44.994 44.5831C44.8059 43.8585 44.6732 43.1747 44.4482 42.524C44.1422 41.6405 43.519 41.001 42.634 40.7126C41.7454 40.4206 40.8899 40.5315 40.1561 41.1932C40.086 41.2561 39.9422 41.2339 39.8168 41.2561C39.5108 41.0527 39.7357 40.8125 39.85 40.6794C40.3515 40.1064 40.8272 39.478 41.4282 39.027C42.9327 37.8958 44.7174 38.1028 46.0412 39.4743C46.3657 39.807 46.6681 40.1618 47.0553 40.5833C47.306 40.4058 47.5162 40.2543 47.8186 40.0398C47.4498 39.6776 47.1548 39.4003 46.8746 39.112C45.2374 37.4411 44.6916 35.552 45.5877 33.2934C46.3288 31.4302 47.0184 29.5449 47.6305 27.6337C48.2242 25.7817 48.7736 23.9037 49.1682 22.0036C49.4226 20.7837 49.8503 19.7634 50.8349 18.9945C50.9049 18.9391 50.9123 18.7986 50.9455 18.6988C50.3297 18.1664 49.6549 17.6933 49.1276 17.087C48.6298 16.5177 48.2942 15.8042 47.8849 15.161C47.424 14.4402 47.0958 14.3034 46.2514 14.5511C45.8015 14.6841 45.359 14.8616 44.9387 15.0686C44.4704 15.2978 44.0279 15.5824 43.4637 15.9078C43.7624 16.2479 43.9726 16.5029 44.1975 16.7432C44.8686 17.4493 45.2374 18.3069 45.4475 19.2459C45.6467 20.1479 45.4734 20.9796 45.0714 21.8151C43.578 24.8944 42.1289 27.996 40.6576 31.0901C39.2121 34.1288 37.7297 37.1527 36.3359 40.2136C35.8197 41.3485 35.0527 42.1802 34.0018 42.7791C31.3542 44.2911 28.5444 45.0822 25.528 44.2319C22.8878 43.4889 20.7344 41.9843 19.4401 39.4632C18.9239 38.454 18.5551 37.3967 18.9017 36.2285C19.0713 35.663 19.3184 35.3931 19.9084 35.467C20.8044 35.5816 21.671 35.4892 22.5449 35.3339C23.4004 35.1861 24.0457 34.7647 24.5177 33.9957C26.2213 31.2195 27.5451 28.2584 28.8062 25.2641C28.8689 25.1162 28.843 24.9277 28.8836 24.4545L28.891 24.4582ZM26.8666 20.292C27.3902 20.2107 27.7368 20.1109 28.0797 20.1146C29.0827 20.1257 29.6248 20.6321 29.6358 21.634C29.6432 22.2698 29.5289 22.9093 29.4552 23.6967C30.9117 22.5877 32.5231 21.8853 33.9059 20.6284C33.3528 18.6544 32.4309 16.9687 30.7568 15.6564C29.315 16.9428 27.6041 17.5676 25.8083 18.2773C26.1844 18.9945 26.5015 19.6045 26.8629 20.292H26.8666Z" fill="white"/>
<path d="M305.821 39.8071C305.891 39.3857 305.854 39.1047 305.976 38.9679C306.403 38.4911 306.816 37.9107 307.366 37.6445C309.21 36.761 311.094 36.639 312.919 37.7628C313.269 37.9772 313.583 38.2508 313.94 38.4504C314.04 38.5058 314.235 38.3912 314.582 38.3099C313.103 37.1418 311.518 36.2545 310.946 34.3729C311.201 34.0772 311.499 33.7925 311.724 33.4598C312.148 32.8277 312.665 32.2177 312.908 31.5154C314.154 27.9517 315.327 24.3586 316.518 20.7764C316.551 20.6729 316.511 20.5436 316.496 20.3291C315.102 19.5491 313.926 18.3995 312.709 17.2941C312.274 16.8986 311.772 16.577 311.286 16.248C310.633 15.8044 309.903 15.5937 309.114 15.6158C305.338 15.7157 301.82 16.7322 298.483 18.5547C298.468 18.832 298.416 19.0649 298.45 19.2867C298.667 20.7986 298.398 22.1516 297.583 23.5046C296.96 24.5434 296.672 25.8003 296.329 26.9869C295.721 29.0829 295.186 31.1975 294.578 33.4487C295.352 34.4801 296.226 35.6409 297.137 36.8534C298.029 36.4246 298.863 36.0254 299.744 35.6039C299.593 35.2453 299.497 34.9755 299.368 34.7204C298.306 32.6207 297.808 30.3509 297.845 28.0479C297.904 24.5175 298.94 21.2829 301.68 18.8468C303.332 17.3792 305.279 16.6509 307.532 16.8616C308.096 16.9134 308.542 17.1093 308.944 17.4864C310.895 19.331 311.499 22.6174 310.235 24.9981C309.884 25.6561 309.35 26.2439 308.8 26.7614C308.336 27.1976 307.749 27.5229 307.185 27.8298C306.577 28.1625 306.322 28.5913 306.536 29.2752C306.566 29.3639 306.477 29.4896 306.437 29.619C305.788 29.8223 305.164 29.7705 304.611 29.3343C303.992 28.8464 303.553 28.2253 303.369 27.449C303.221 26.8316 303.394 26.2439 303.815 25.804C304.213 25.3862 304.707 25.0461 305.194 24.7282C305.533 24.5027 305.946 24.3918 306.304 24.1922C306.754 23.9408 307.004 23.549 306.901 23.0166C306.746 22.2108 306.621 21.3864 306.053 20.7617C305.426 20.6101 304.976 20.9132 304.56 21.2274C302.753 22.5878 301.787 24.4066 301.691 26.669C301.628 28.1551 301.779 29.6264 302.358 31.0126C302.882 32.2621 303.476 33.4857 303.995 34.7352C304.309 35.493 304.585 36.2767 304.788 37.0678C304.925 37.6002 304.659 37.9587 304.128 38.1547C303.026 38.565 301.89 38.894 300.817 39.3709C299.582 39.918 298.402 40.5871 297.2 41.2118C296.993 41.319 296.809 41.4817 296.598 41.5815C296.045 41.8477 295.562 41.7959 295.153 41.3338C294.843 40.9863 294.581 40.5834 294.382 40.162C293.527 38.3617 292.303 36.883 290.673 35.737C290.433 35.5707 290.182 35.3932 290.009 35.164C289.629 34.665 289.496 34.1216 289.847 33.519C290.322 32.702 290.802 31.8887 291.215 31.0385C292.41 28.5839 293.202 25.9888 293.818 23.3383C294.017 22.4769 294.194 21.6082 294.379 20.7432C294.744 19.0353 294.261 18.4032 292.45 18.1998C292.277 18.1814 292.104 18.1518 291.952 18.1296C291.702 17.7932 291.827 17.4938 292.115 17.3866C295.651 16.0631 298.815 13.9228 302.399 12.7176C304.921 11.8711 307.476 11.2242 310.165 11.2205C311.208 11.2205 312.145 11.4644 312.963 12.1188C313.929 12.8914 314.903 13.6566 315.854 14.4477C316.717 15.1611 317.558 15.9042 318.413 16.625C319.438 17.4864 320.559 18.0778 322.012 17.7156C322.495 19.1906 322.329 20.477 321.29 21.5306C320.821 22.0037 320.412 22.4769 320.187 23.098C318.9 26.7097 317.617 30.325 316.337 33.9367C316.278 34.0994 316.271 34.2768 316.245 34.4284C317.355 36.0291 317.373 36.0401 319.91 36.4098C320.224 36.7758 320.235 37.1824 319.933 37.5336C318.48 39.2415 316.964 40.8976 315.12 42.2025C314.837 42.4022 314.501 42.55 314.173 42.6683C313.384 42.9493 312.665 42.8717 312.104 42.1693C311.809 41.7996 311.507 41.4373 311.215 41.0677C309.877 39.3709 308.608 38.9864 306.577 39.6518C306.414 39.7036 306.241 39.7184 305.813 39.7997L305.821 39.8071Z" fill="white"/>
<path d="M249.086 21.0685C248.968 20.7506 248.913 20.5251 248.806 20.3255C248.223 19.2349 247.629 18.1518 246.984 16.9651C245.62 17.6232 244.539 18.5769 243.341 19.527C243.699 20.111 244.06 20.6323 244.359 21.1905C244.993 22.3845 244.687 23.8965 243.61 24.6876C243.3 24.9168 242.869 25.0203 242.478 25.0794C242.113 25.1349 241.755 24.9611 241.615 24.5951C241.117 23.2902 240.162 22.3143 239.311 21.2644C238.735 20.5546 238.344 19.782 238.4 18.8394C238.429 18.3403 238.606 17.9189 239.089 17.6934C241.8 16.4328 244.045 14.529 246.228 12.5328C247.172 11.6678 247.906 11.6604 248.883 12.518C249.403 12.9764 249.849 13.5494 250.218 14.1409C251.505 16.1888 252.744 18.2664 253.998 20.3328C254.119 20.5325 254.241 20.7358 254.344 20.9502C254.883 22.0592 254.824 22.4695 253.821 23.2089C253.065 23.7634 252.25 24.2587 251.409 24.6691C250.675 25.0277 250.203 25.4713 249.934 26.2845C248.942 29.253 247.865 32.1919 246.829 35.1418C246.715 35.4672 246.641 35.811 246.523 36.2435C249.134 36.9163 251.199 38.5169 253.308 39.8551C254.897 39.1306 256.398 38.443 258.054 37.6889C258.183 37.2601 258.363 36.7056 258.511 36.1437C260.727 27.7521 262.943 19.3643 265.141 10.9691C265.399 9.98946 265.642 9.03571 266.675 8.57362C265.384 7.08385 264.934 6.88423 262.268 6.51826C261.937 6.15968 261.767 5.73455 261.855 5.2392C261.973 4.59227 262.18 3.98232 262.681 3.51283C263.378 2.85482 264.175 2.35207 265.078 2.04894C265.69 1.84562 266.328 1.71993 266.955 1.56467C268.128 1.27263 269.168 1.57946 270.112 2.28922C270.772 2.78458 271.446 3.26515 272.077 3.79378C272.748 4.35938 273.464 4.40374 274.212 4.05625C275.495 3.46108 276.756 2.82525 278.032 2.21899C278.379 2.05264 278.696 1.68666 279.153 1.96022C279.124 2.07482 279.131 2.22638 279.061 2.28553C277.372 3.75682 275.669 5.20962 273.983 6.68091C273.135 7.42395 272.225 7.57551 271.199 7.11712C271.052 7.05058 270.871 7.05428 270.705 7.0284C270.455 7.39438 270.775 7.56812 270.904 7.78253C271.207 8.28898 271.572 8.75846 271.834 9.28339C272.04 9.69742 272.206 10.1669 271.778 10.7251C271.483 10.7916 271.092 10.8915 270.698 10.9728C269.422 11.2389 268.718 11.9487 268.386 13.2869C267.258 17.8117 266.004 22.3069 264.787 26.8058C264.002 29.7114 263.194 32.6133 262.401 35.5189C262.28 35.9662 262.195 36.4283 262.088 36.92C262.398 37.2342 262.681 37.5225 262.965 37.8146C263.666 38.5317 263.931 39.4226 263.965 40.3949C263.99 41.1416 263.718 41.5261 262.98 41.6111C260.362 41.9142 258.002 42.9863 255.624 44.0176C254.812 44.3688 254.009 44.7385 253.183 45.0453C252.641 45.2486 252.065 45.3558 251.483 45.5111C251.114 45.086 250.782 44.757 250.513 44.3836C248.654 41.8218 246.103 40.7608 243.005 40.8754C242.006 40.9124 241.003 40.99 240.004 41.0196C239.484 41.0344 238.927 41.0972 238.485 40.5169C238.499 39.8441 238.85 39.2415 239.296 38.6981C239.594 38.3358 239.915 37.9624 240.299 37.7074C241.482 36.9163 242.091 35.7962 242.603 34.4838C244.005 30.9017 245.122 27.2383 246.044 23.512C246.206 22.8577 246.516 22.4658 247.054 22.1738C247.718 21.8115 248.385 21.4529 249.082 21.0796L249.086 21.0685Z" fill="white"/>
<path d="M338.233 35.4376C339.303 34.7722 340.191 34.1992 341.098 33.6632C341.552 33.397 341.751 32.9978 341.832 32.5172C342.271 29.8888 343.049 27.3529 343.857 24.8244C343.982 24.4325 344.085 24.0259 344.122 23.6192C344.148 23.3383 344.122 22.9982 343.982 22.769C343.237 21.5491 342.418 20.3957 340.914 20.0149C340.575 19.9299 340.232 19.8079 339.922 19.6453C339.214 19.2682 338.871 18.3921 339.24 17.6749C339.561 17.0539 339.97 16.455 340.442 15.9412C341.836 14.4366 343.587 13.494 345.534 12.884C346.751 12.5032 347.868 12.5993 348.82 13.5087C349.86 14.5032 351.113 14.7397 352.426 14.3812C353.189 14.1741 353.872 13.6603 354.738 13.2093C355.029 13.2611 355.044 13.6233 354.908 13.9708C353.894 16.5511 350.877 18.0039 348.241 17.198C347.791 17.0613 347.345 16.9171 346.899 16.7729C345.958 16.4698 345.177 16.7397 344.48 17.394C345.228 18.2516 345.977 19.0649 346.677 19.9188C347.385 20.7802 348.045 21.6822 348.757 22.61C348.643 23.6451 348.119 24.5841 347.813 25.5933C347.216 27.5673 346.659 29.5524 346.095 31.5339C345.785 32.6281 345.704 33.7519 345.826 34.872C345.929 35.8294 345.501 36.4616 344.819 36.9902C344.45 37.2749 344.045 37.541 343.617 37.7259C341.714 38.5539 340.018 39.7295 338.289 40.8496C337.846 41.1379 337.374 41.3782 336.898 41.6074C335.67 42.1989 334.369 40.9716 334.553 39.8589C334.59 39.626 334.638 39.3931 334.642 39.1565C334.697 36.0069 333.554 33.3231 331.625 30.8943C330.954 31.3712 330.936 32.0107 330.77 32.5542C330.032 34.9829 329.332 37.419 328.65 39.8626C328.498 40.3986 328.347 40.857 327.787 41.101C326.614 41.6074 325.925 41.4189 325.279 40.3025C324.984 39.7923 324.737 39.2526 324.531 38.7018C323.786 36.713 323.085 34.7093 322.337 32.7242C322.093 32.0773 322.189 31.5782 322.753 31.179C323.281 30.8056 323.801 30.4175 324.339 30.0552C325.56 29.2308 326.78 28.4065 328.019 27.6117C328.543 27.2753 328.886 26.8538 329.055 26.2476C329.354 25.1792 329.701 24.1257 329.988 22.8207C329.265 23.2163 329.011 23.7338 328.664 24.1589C328.255 24.658 327.883 25.2014 327.418 25.645C326.614 26.4139 325.851 26.3474 325.143 25.5304C325.029 25.3973 324.885 25.2717 324.818 25.1127C324.173 23.6636 323.458 22.2367 322.93 20.7395C322.569 19.7118 322.916 18.8061 323.937 18.1851C326.253 16.7803 328.532 15.3127 330.84 13.8969C331.474 13.5087 331.706 13.5605 332.249 14.0817C334.417 16.1667 335.958 18.6509 336.825 21.5343C337.097 22.4437 337.016 22.6396 336.253 23.1756C335.482 23.7153 334.679 24.2107 333.893 24.7356C333.602 24.9316 333.303 25.1349 333.052 25.3789C332.54 25.8779 332.558 26.3585 333.056 26.9019C333.853 27.7669 334.697 28.5987 335.416 29.5229C336.548 30.9757 337.392 32.5948 337.839 34.4025C337.909 34.6835 338.038 34.9496 338.218 35.4302L338.233 35.4376ZM330.663 17.5603C329.192 18.5215 327.783 19.2275 326.555 20.2885C326.784 20.9872 326.953 21.6489 327.381 22.1886C328.627 22.111 329.719 21.05 331.01 21.9631C331.426 21.4751 332.19 21.4862 332.518 20.7506C332.26 20.2552 332.005 19.7303 331.714 19.2275C331.423 18.7248 331.094 18.2405 330.659 17.5603H330.663ZM326.953 32.6835C326.824 32.7575 326.773 32.7834 326.725 32.8129C326.433 32.9978 326.371 33.2418 326.551 33.5375C326.574 33.5745 326.647 33.6114 326.688 33.604C327.057 33.5227 327.075 33.2344 327.068 32.9349C327.068 32.8832 327.023 32.8351 326.953 32.6835V32.6835Z" fill="white"/>
<path d="M210.139 34.5245C210.641 34.129 211.161 33.7556 211.636 33.3305C213.432 31.7372 213.989 29.582 214.28 27.3196C214.31 27.0867 214.339 26.8354 214.288 26.6136C213.959 25.1755 214.719 24.2661 215.744 23.4566C217.647 21.952 219.804 21.0833 222.216 20.9021C222.794 20.8578 223.388 20.9539 223.971 21.0241C224.446 21.0833 224.841 21.3051 225.199 21.6563C226.91 23.3272 228.27 25.2273 229.148 27.4638C229.646 28.7281 230.169 29.9776 230.697 31.2307C230.778 31.4267 230.933 31.593 231.169 31.9442C231.456 30.9794 231.711 30.1994 231.921 29.4046C232.345 27.8076 232.684 26.1847 233.175 24.6062C233.473 23.6488 233.318 22.9131 232.681 22.1701C231.607 20.9169 230.63 19.5787 229.531 18.3514C228.182 16.8432 226.46 16.1925 224.439 16.5031C223.51 16.6435 222.566 16.7803 221.677 17.0687C217.949 18.2849 214.804 20.4142 212.26 23.4048C211.024 24.8576 210.117 26.5063 209.568 28.3251C209.096 28.2808 209.07 27.9924 209.14 27.6893C209.328 26.8871 209.457 26.0553 209.752 25.2938C211.843 19.8782 215.589 16.089 220.969 13.9339C222.241 13.4237 223.58 13.1575 224.93 13.0947C227.677 12.9653 230.199 13.6566 232.264 15.5678C233.038 16.285 233.731 17.1019 234.399 17.9226C235.7 19.5196 236.962 21.1535 238.355 22.9205C238.462 23.5083 238.083 24.1294 237.655 24.6802C236.836 25.7337 236.42 26.9389 236.051 28.1957C235.088 31.4821 234.082 34.7537 233.101 38.0364C232.728 39.2785 232.33 40.5169 232.043 41.7774C231.7 43.2931 230.582 43.8254 229.281 44.1692C229 44.2431 228.694 44.2357 228.403 44.2431C227.374 44.2616 226.858 43.8809 226.596 42.9382C226.39 42.1952 226.552 41.7146 227.33 41.4078C227.961 41.1564 228.248 40.7128 228.462 40.1472C229.13 38.3839 229.79 36.6168 230.472 34.8018C230.221 34.4543 229.978 34.129 229.749 33.7963C229.056 32.7723 228.34 31.7594 227.684 30.7132C226.994 29.6153 226.368 28.473 225.697 27.364C225.14 26.4472 224.443 25.6524 223.521 25.0794C222.573 24.4916 221.589 24.2181 220.505 24.7024C220.128 24.8687 219.734 24.9907 219.354 25.1534C218.425 25.5489 217.887 26.1478 217.746 27.2531C217.429 29.7742 216.817 32.2362 215.645 34.5652C216.345 35.5226 217.035 36.4616 217.813 37.5262C218.156 37.4819 218.595 37.4227 218.956 37.3784C219.048 37.2231 219.107 37.175 219.103 37.127C219.048 36.31 219.037 35.4524 218.502 34.7944C218.163 34.3803 217.698 34.0476 217.783 33.4562C217.887 32.739 218.484 32.3952 219.044 32.0662C219.826 31.6078 220.678 31.3897 221.581 31.4451C222.275 31.4858 222.684 31.8037 222.809 32.495C222.938 33.19 223.019 33.8998 223.049 34.6058C223.097 35.7518 223.407 36.8054 223.923 37.8257C224.686 39.3339 224.089 40.8496 222.496 41.3301C221.769 41.5482 220.991 41.6111 220.232 41.6776C219.277 41.7627 218.366 41.9771 217.533 42.4428C217.005 42.7386 216.489 43.038 215.877 42.7682C215.103 42.4281 214.446 41.9475 214.17 41.0862C214.063 40.7498 213.959 40.4097 213.864 40.0696C213.58 39.0567 213.03 38.3173 212.06 37.7961C210.593 37.0124 210.176 36.1769 210.136 34.5356L210.139 34.5245Z" fill="white"/>
<path d="M71.2154 35.896C70.6328 37.371 69.5044 37.8294 68.2544 37.9772C66.7647 38.1547 66.0604 37.09 65.4556 35.8553C64.637 36.0513 64.213 36.6649 63.7078 37.2638C64.7034 38.5613 65.6732 39.8108 66.9785 40.9272C68.8075 40.1842 70.548 39.2341 72.4323 38.3247C71.3334 36.6834 71.7648 35.2158 72.5023 33.7149C74.7111 29.2124 76.8719 24.6839 79.0475 20.1628C79.2503 19.7414 79.4236 19.3052 79.6412 18.8061C79.4273 18.5363 79.2503 18.2294 78.9996 18.0076C78.4686 17.5419 77.9228 17.0798 77.3329 16.6953C74.1285 14.5919 70.7692 14.3146 67.2588 15.8931C65.4704 16.6953 63.8074 17.6749 62.4135 19.0834C61.2409 20.2663 60.2379 21.5676 59.5521 23.098C59.2386 23.7967 58.9141 24.4954 58.5601 25.1756C58.4421 25.3974 58.2098 25.56 58.0513 25.7264C57.5903 25.5083 57.6088 25.1792 57.6346 24.9057C57.8485 22.647 58.5712 20.5251 59.4783 18.466C59.6406 18.1001 59.9466 17.7858 60.2232 17.4864C63.0367 14.444 66.4807 12.5032 70.5369 11.7121C72.1778 11.3905 73.804 11.483 75.3933 12.1336C77.7901 13.1132 78.6972 13.5901 81.1862 15.4569C81.8131 15.3053 82.4326 15.1353 83.0631 15.0059C83.8375 14.847 84.5897 14.9948 85.3088 15.2869C85.7771 15.4791 85.9393 16.0743 85.6111 16.4698C83.2622 19.3163 81.673 22.6137 80.0394 25.8816C79.1434 27.6782 78.2363 29.4674 77.3882 31.2862C76.717 32.7242 76.1271 34.1992 75.5039 35.6483C76.0681 36.4986 76.9899 36.4986 77.6647 36.92C78.0224 38.1436 77.8933 38.7055 76.9199 39.3265C75.7768 40.0548 74.6042 40.7424 73.3947 41.3486C71.3961 42.3504 69.3606 43.2894 67.3289 44.221C66.7462 44.4871 66.1268 44.7311 65.3045 44.4834C63.9733 42.3615 62.0669 40.5982 60.249 38.7499C59.8397 38.3358 59.4931 37.8405 59.1907 37.3377C58.8441 36.7536 58.8404 36.14 59.5668 35.6668C60.3043 35.1862 60.9865 34.6095 61.6834 34.0661C62.5684 33.3748 63.4312 32.654 63.9954 31.6522C64.401 30.9276 65.098 30.7169 65.8096 30.8389C66.9675 31.0348 67.9115 31.6041 68.2913 32.824C68.3429 32.9941 68.3835 33.1678 68.4351 33.3379C68.9808 35.1234 69.2353 35.3711 71.2007 35.8997L71.2154 35.896Z" fill="white"/>
<path d="M157.427 44.1471C157.881 43.2229 158.493 42.7904 159.179 42.4281C160.064 41.9623 160.942 41.4781 161.815 40.9938C162.612 40.5502 163.187 39.9402 163.497 39.0382C163.995 37.5891 164.629 36.1881 165.108 34.7353C166.775 29.6708 168.892 24.8207 171.713 20.2516C170.617 19.0169 169.53 17.7933 168.434 16.5697C167.516 15.542 166.366 15.3128 165.06 15.5678C163.014 15.9671 161.104 16.7212 159.323 17.7822C157.745 18.7211 156.358 19.9004 155.108 21.2571C153.338 23.1794 151.789 25.2384 150.738 27.6524C150.606 27.9555 150.521 28.3474 149.96 28.3769C149.949 28.1071 149.901 27.8372 149.938 27.5784C150.381 24.2958 151.572 21.3088 153.581 18.6768C154.367 17.6491 155.204 16.6473 156.096 15.712C158.419 13.2833 161.281 11.8933 164.6 11.398C166.185 11.1614 167.664 11.4201 168.991 12.3073C169.821 12.8582 170.603 13.4903 171.359 14.1409C171.937 14.64 172.443 15.2241 172.977 15.7712C173.685 16.4883 174.46 17.1057 175.352 17.5899C176.893 18.4291 177.244 20.3699 176.023 21.5565C173.025 24.4621 171.178 28.0738 169.699 31.8851C168.504 34.9608 167.446 38.0956 166.421 41.2304C166.122 42.1435 165.621 42.6351 164.743 42.7978C164.05 42.9272 163.349 43.0344 162.645 43.0935C161.111 43.2229 159.607 43.4706 158.165 44.0214C158.01 44.0805 157.833 44.0768 157.424 44.136L157.427 44.1471Z" fill="white"/>
<path d="M273.264 42.2248C273.932 41.8071 274.234 41.5557 274.585 41.4041C277.085 40.3136 278.597 38.3654 279.352 35.8073C280.337 32.4692 281.274 29.12 282.218 25.7708C282.712 24.0148 283.184 22.2515 283.689 20.3957C282.634 19.3126 281.583 18.2184 280.51 17.1463C280.223 16.858 279.869 16.6288 279.529 16.3959C278.209 15.4939 276.782 15.2758 275.355 16.0262C271.97 17.8044 269.138 20.1 268.283 24.1183C268.213 24.451 268.091 24.7763 267.921 25.3345C267.678 24.9944 267.49 24.854 267.464 24.6839C267.258 23.2126 267.232 21.7413 267.501 20.2738C267.774 18.784 268.427 17.5012 269.492 16.4033C271.421 14.4182 273.615 12.9025 276.318 12.1817C277.922 11.7528 279.485 11.9044 280.99 12.5144C281.624 12.7731 282.203 13.2315 282.719 13.6936C283.508 14.3997 284.205 15.2093 284.972 15.9412C285.831 16.7582 286.76 17.4199 287.974 17.6971C289.261 17.9929 289.836 19.978 289.021 21.0353C288.877 21.2201 288.707 21.3902 288.519 21.5306C287.491 22.318 286.915 23.4086 286.506 24.5915C285.448 27.6598 284.448 30.7428 283.796 33.9294C283.667 34.5615 283.6 35.2121 283.552 35.8591C283.375 38.1917 282.151 39.8071 280.156 40.9051C278.184 41.9882 275.665 42.5279 273.264 42.2137V42.2248Z" fill="white"/>
<path d="M6.11003 33.4043C6.92864 34.5872 8.24874 35.101 8.86085 36.4651C7.43013 36.8274 6.04734 37.064 4.84524 37.9919C5.82241 38.8791 6.72952 39.6997 7.66981 40.55C9.15216 39.6628 10.605 38.7941 12.0689 37.9179C12.0689 37.8033 12.1132 37.6592 12.0615 37.5852C10.4907 35.3968 10.7119 33.0272 11.3867 30.628C11.5822 29.9331 12.0099 29.3638 12.6147 28.9423C13.2968 28.4692 14.0528 28.447 14.5727 28.8943C15.218 29.4488 15.4761 30.4839 14.9525 31.1123C14.1597 32.0624 14.1892 33.0679 14.5395 34.1066C14.8234 34.9458 15.2917 35.6999 15.926 36.3505C16.2947 36.7276 16.645 37.1379 16.9216 37.5815C17.4046 38.3652 17.2866 39.0196 16.6045 39.6332C16.3869 39.8291 16.1361 39.9992 15.8743 40.1212C15.2327 40.4169 14.5911 40.7348 13.92 40.9344C11.8182 41.5629 9.82696 42.4242 8.00168 43.6515C7.76568 43.8105 7.47806 43.8955 7.17201 44.036C6.8512 43.6441 6.56358 43.2782 6.26121 42.9233C4.74937 41.1599 3.04946 39.6258 0.918125 38.6425C0.47932 38.4466 0.00732927 38.2469 -4.55938e-05 37.6924C-0.00742045 37.0566 0.519882 36.783 1.02137 36.6204C2.02804 36.2951 3.06052 36.0437 4.07457 35.748C4.52074 35.6186 4.95586 35.4633 5.55322 35.2674C4.55762 34.3876 3.25227 34.4356 2.40416 33.7C2.41522 33.5189 2.37835 33.3599 2.43735 33.2971C3.33339 32.3951 3.81645 31.2787 4.22944 30.0994C5.18817 27.3712 6.11371 24.6283 7.20151 21.9519C8.45523 18.8651 10.31 16.1296 12.6036 13.7082C13.4996 12.7619 14.5026 11.956 15.7527 11.4828C16.5676 11.1723 17.2793 11.2647 17.8656 11.8636C18.1827 12.1852 18.4408 12.6251 18.5699 13.0576C18.6731 13.4088 18.544 13.8302 18.5145 14.3145C17.1908 14.0224 16.2652 14.5991 15.3729 15.3015C14.2887 16.148 13.4259 17.1831 12.6737 18.3254C11.7997 19.6599 11.0327 21.0499 10.3543 22.4953C8.69492 26.0219 7.30844 29.6521 6.11371 33.408L6.11003 33.4043Z" fill="white"/>
<path d="M110.579 18.7839C110.498 19.1388 110.509 19.331 110.416 19.442C109.786 20.2146 109.218 21.0722 108.473 21.7191C104.225 25.4269 99.4648 28.1366 93.8082 29.0238C92.997 29.1495 92.1858 29.2974 91.3709 29.4046C91.1496 29.4341 90.9173 29.3602 90.6924 29.3343C90.7292 28.0775 90.7735 28.0405 90.1503 27.1829C89.5308 26.3289 88.8523 25.5009 88.1038 24.7578C87.6244 24.2809 86.9754 23.9778 86.2859 23.5157C86.3596 23.3937 86.4592 23.1313 86.6399 22.9427C87.9637 21.5528 89.6304 20.6693 91.3266 19.8338C91.9424 19.5307 92.4771 19.6859 92.9048 20.1998C93.8451 21.3347 94.7854 22.4696 95.711 23.6192C96.1498 24.1663 96.5517 24.7504 97.0016 25.3604C98.3401 25.316 99.5238 24.7948 100.718 24.329C101.869 23.878 103.019 23.4196 104.137 22.8947C105.309 22.3439 106.489 21.7857 107.577 21.0981C108.587 20.4585 109.484 19.6416 110.579 18.7876V18.7839ZM89.4976 21.8448C90.8067 23.4085 91.9572 24.7911 93.1556 26.2254C93.5169 26.1921 93.9226 26.17 94.3208 26.1145C94.4794 26.0923 94.6269 25.9999 94.8481 25.9149C94.7559 25.072 94.1291 24.5619 93.6681 24.0074C92.8237 22.9945 92.2079 21.7413 90.8731 21.05C90.4416 21.2977 90.0028 21.5528 89.4976 21.8448Z" fill="white"/>
<path d="M81.9384 38.5243C83.5682 36.5613 85.5926 35.5263 87.7092 34.5651C89.7594 36.188 91.0094 38.4504 92.7647 40.2063C94.5088 40.0289 96.0649 39.5002 97.5767 38.857C99.1439 38.1879 100.678 37.4412 102.238 36.7536C103.735 36.0956 104.859 34.8904 106.434 33.7629C106.124 34.8461 105.634 35.4228 105.077 35.9033C103.834 36.9828 102.61 38.1029 101.253 39.027C97.4956 41.5852 93.2403 42.9234 88.8338 43.818C88.159 43.9548 87.4437 44.11 86.7504 43.8069C85.8138 41.5223 84.4937 39.5926 81.9384 38.5243V38.5243ZM90.6333 40.6166C89.4939 38.5834 88.0927 37.0419 86.496 36.0845C86.1752 36.3174 85.8065 36.5835 85.4488 36.8534C85.4193 36.8756 85.434 36.9532 85.434 36.9643C86.555 38.2766 87.6576 39.5631 88.8633 40.9752C89.3722 40.8717 89.9806 40.746 90.6333 40.6166V40.6166Z" fill="white"/>
<path d="M147.176 16.2702C146.97 16.3109 146.8 16.3553 146.627 16.3811C145.462 16.566 144.835 16.285 144.285 15.3091C144.142 15.054 144.075 14.7509 143.924 14.5032C143.437 13.701 142.943 12.8988 142.416 12.1225C141.693 11.0579 140.69 10.8287 139.466 11.1022C137.995 11.4312 136.7 12.0893 135.502 12.9691C134.989 13.3461 134.473 13.7158 133.942 14.1003C133.013 13.0393 132.191 12.0412 131.302 11.1022C130.738 10.5071 130.089 9.98584 129.462 9.45351C129.075 9.1245 128.618 9.04318 128.135 9.20953C127.356 9.47939 126.564 9.71598 125.811 10.045C122.555 11.4608 119.583 13.3831 116.626 15.3239C116.379 15.4828 116.143 15.6677 115.936 15.8747C115.052 16.7582 115.044 17.7711 115.911 18.6657C116.239 19.0058 116.619 19.2941 116.932 19.6453C117.559 20.3366 118.237 21.002 118.61 22.0112C117.231 23.294 116.633 25.0425 115.914 26.7134C115.498 27.6857 115.214 28.717 114.852 29.7152C114.13 31.7114 113.4 33.7002 112.684 35.6558C111.869 36.0809 111.139 36.4616 110.405 36.8387C108.964 37.5781 107.776 38.6242 106.773 39.8811C106.618 40.0733 106.357 40.3395 106.788 40.65C107.205 40.3839 107.64 40.0918 108.086 39.822C109.731 38.8386 111.508 38.2324 113.418 38.0993C115.232 37.9699 116.453 39.0604 116.611 40.8718C116.648 41.2822 116.637 41.6999 116.678 42.1102C116.751 42.8569 117.039 43.1675 117.795 43.2081C118.319 43.2377 118.857 43.1896 119.369 43.0861C119.945 42.9715 120.498 42.7571 121.058 42.576C122.681 42.0511 124.292 41.4781 125.929 40.9975C127.22 40.6204 128.072 39.9033 128.5 38.5836C129.359 35.9367 130.675 33.4858 131.837 30.9683C132.482 29.5747 133.105 28.1736 133.725 26.7689C134.082 25.9667 134.425 25.1534 134.621 24.1775C132.821 23.2163 131.265 21.9964 130.214 20.2109C129.886 19.6527 129.244 19.5899 128.632 19.6231C127.312 19.6934 126.129 20.1924 125.067 20.6693C124.609 21.9632 124.292 23.1646 123.769 24.2699C123.245 25.3752 122.522 26.3881 121.847 27.5082C122.353 28.5951 122.817 29.6745 123.352 30.7207C123.684 31.3676 124.152 31.5561 124.82 31.3713C126.302 30.9573 127.456 30.0885 128.256 28.7651C128.636 28.1404 128.559 27.5193 128.142 26.9463C127.958 26.6949 127.696 26.5877 127.368 26.7134C127.179 26.7874 126.973 26.8169 126.663 26.8946C126.947 25.6377 127.438 24.6618 128.168 23.6932C128.529 24.074 128.85 24.4067 129.163 24.7468C129.517 25.1275 129.868 25.512 130.244 25.9186C128.78 29.9222 126.766 33.5967 125.085 37.4191C123.286 37.8849 121.534 38.3396 119.705 38.8164C118.912 37.3489 118.363 35.6521 116.567 35.0828C116.582 34.8055 116.552 34.6133 116.611 34.458C117.699 31.5894 118.787 28.7207 119.897 25.8632C120.203 25.0721 120.833 24.7394 121.674 24.6174C122.463 24.5028 122.673 24.2034 122.74 23.4418C122.777 23.0352 122.821 22.5879 122.699 22.2145C122.426 21.3791 122.128 20.5362 121.696 19.7784C121.235 18.9688 120.605 18.2517 120.007 17.4347C120.225 17.2425 120.417 17.0207 120.653 16.8728C122.401 15.7823 124.119 14.6289 125.922 13.6419C127.972 12.5218 128.057 12.6253 129.668 14.3036C130.749 15.4311 131.486 16.6214 130.996 18.2628C130.705 19.2461 131.391 19.6195 132.132 19.5455C132.585 19.5012 133.068 19.3755 133.459 19.1463C134.012 18.821 134.506 18.3884 135.001 17.9707C135.72 17.3645 136.391 16.6917 137.136 16.115C137.969 15.4717 138.865 14.9062 139.931 14.847C140.742 15.4459 141.007 16.3294 141.49 17.0576C142.007 17.8376 142.593 18.5696 143.135 19.3015C143.113 19.4568 143.117 19.5788 143.076 19.6897C141.306 24.573 139.536 29.4564 137.748 34.3323C137.423 35.2159 137.029 36.0772 136.638 36.9348C136.258 37.7666 135.708 38.3396 134.746 38.6242C133.124 39.1085 131.822 40.0955 130.989 41.9254C134.171 40.8977 136.11 41.1491 138.821 44.136C140.484 44.1471 142.276 43.5408 143.876 42.3616C144.614 41.8182 145.443 41.3228 145.676 40.2914C144.245 40.1177 144.027 40.0216 143.091 39.0161C142.294 38.1584 141.52 37.2786 140.712 36.3766C140.93 35.726 141.125 35.1123 141.343 34.5061C142.711 30.7318 144.105 26.9685 145.447 23.1868C145.926 21.8338 146.435 20.5362 147.652 19.6527C147.991 19.405 148.209 19.0465 148.179 18.5881C148.12 17.6898 147.962 16.8395 147.173 16.2591L147.176 16.2702Z" fill="white"/>
</g>
<defs>
<clipPath id="clip0_130_7">
<rect width="355" height="45" fill="white" transform="translate(0 0.5)"/>
</clipPath>
</defs>
</svg>
