<svg width="332" height="19" viewBox="0 0 332 19" fill="none" xmlns="http://www.w3.org/2000/svg">
<g clip-path="url(#clip0_85_218)">
<path d="M19.6484 5.26929C18.9643 5.74377 18.5997 5.55571 18.4018 5.17957C17.7768 6.00603 16.9191 6.68584 15.8895 6.6496C14.6482 6.60647 13.2332 5.73342 13.3478 4.32895C13.438 3.22643 14.2679 2.23433 15.4746 2.36546C15.9972 2.4224 16.4764 2.61046 16.6482 3.11773C16.7472 3.41277 16.6951 4.17022 16.3027 4.26166C15.7663 4.38762 15.8305 3.76475 15.6031 3.55943C14.9381 2.96072 13.9294 4.01838 14.3877 4.88971C15.7489 7.48297 19.9296 3.26094 18.0598 0.990323C17.0024 -0.291642 14.9867 -0.158787 13.6064 0.431297C12.754 0.79708 12.0213 1.40959 11.3182 2.0014C10.9501 2.31197 9.18613 4.35483 8.79896 4.3117C9.27467 4.36519 9.72261 4.47389 10.1098 4.6447C12.8877 5.86973 11.0039 10.178 8.86146 8.13689C8.41526 7.71244 9.09237 7.04127 9.53857 7.46399C10.516 8.39742 10.8598 6.65996 10.4969 6.14579C10.2348 5.77483 9.93268 5.54363 9.50211 5.42975C8.96042 5.28655 8.39963 5.24686 7.84058 5.28482C5.71202 7.50367 0.5 9.51203 0.5 9.51203C0.5 9.51203 5.71202 11.5204 7.84058 13.7358C8.39963 13.7755 8.96042 13.7358 9.50211 13.5908C9.93268 13.4787 10.2348 13.2475 10.4969 12.8765C10.8598 12.3624 10.516 10.6266 9.53857 11.5583C9.09237 11.9828 8.417 11.3116 8.86146 10.8854C11.0039 8.84603 12.8877 13.1526 10.1098 14.3776C9.72261 14.5484 9.27641 14.6571 8.79896 14.7106C10.7504 16.65 13.5353 19.7039 16.6309 18.8533C20.289 17.8474 17.7403 12.1346 14.9207 13.5926C14.2349 13.9497 14.1325 14.8745 14.6065 15.4301C14.8565 15.7252 16.1152 15.8977 15.7315 15.3214C15.3895 14.809 16.2177 14.3345 16.558 14.8418C17.209 15.8183 16.4902 16.5447 15.4746 16.6551C14.2697 16.788 13.4398 15.7959 13.3495 14.6916C13.2349 13.2872 14.6499 12.4124 15.8913 12.3693C16.9208 12.3348 17.7785 13.0163 18.4035 13.8428C18.5997 13.4649 18.966 13.2768 19.6501 13.753C19.6501 13.753 23.0252 12.4849 21.6241 9.5103C23.0252 6.534 19.6501 5.26757 19.6501 5.26757L19.6484 5.26929Z" fill="#023A9D"/>
<path d="M312.816 5.26929C313.5 5.74377 313.865 5.55571 314.063 5.17957C314.688 6.00603 315.546 6.68584 316.575 6.6496C317.817 6.60647 319.232 5.73342 319.117 4.32895C319.027 3.22643 318.197 2.23433 316.99 2.36546C316.467 2.4224 315.988 2.61046 315.816 3.11773C315.718 3.41277 315.77 4.17022 316.162 4.26166C316.698 4.38762 316.634 3.76475 316.862 3.55943C317.527 2.96072 318.535 4.01838 318.077 4.88971C316.716 7.48297 312.533 3.26094 314.405 0.990323C315.462 -0.291642 317.478 -0.158787 318.858 0.431297C319.711 0.79708 320.443 1.40959 321.147 2.0014C321.515 2.31197 323.279 4.35483 323.666 4.3117C323.19 4.36519 322.742 4.47389 322.355 4.6447C319.577 5.86973 321.461 10.178 323.603 8.13689C324.049 7.71244 323.372 7.04127 322.926 7.46399C321.949 8.39742 321.605 6.65996 321.968 6.14579C322.23 5.77483 322.532 5.54363 322.963 5.42975C323.504 5.28655 324.065 5.24686 324.624 5.28482C326.751 7.50195 331.965 9.5103 331.965 9.5103C331.965 9.5103 326.753 11.5187 324.624 13.7341C324.065 13.7737 323.504 13.7341 322.963 13.5891C322.532 13.477 322.23 13.2458 321.968 12.8748C321.605 12.3606 321.949 10.6249 322.926 11.5566C323.372 11.9811 324.048 11.3099 323.603 10.8837C321.461 8.8443 319.577 13.1509 322.355 14.3759C322.742 14.5467 323.188 14.6554 323.666 14.7089C321.714 16.6482 318.929 19.7022 315.834 18.8516C312.176 17.8457 314.724 12.1329 317.544 13.5908C318.23 13.948 318.332 14.8728 317.858 15.4284C317.608 15.7234 316.349 15.896 316.733 15.3197C317.075 14.8072 316.247 14.3328 315.907 14.84C315.256 15.8166 315.976 16.543 316.99 16.6534C318.195 16.7863 319.025 15.7942 319.115 14.6899C319.23 13.2855 317.815 12.4107 316.573 12.3675C315.544 12.333 314.686 13.0146 314.061 13.841C313.865 13.4632 313.499 13.2751 312.815 13.7513C312.815 13.7513 309.439 12.4831 310.841 9.50858C309.439 6.53228 312.815 5.26584 312.815 5.26584L312.816 5.26929Z" fill="#023A9D"/>
<path d="M312.5 9H21.5V9.81742H312.5V9Z" fill="#023A9D"/>
<path d="M312.5 8.18262H21.5V9.00003H312.5V8.18262Z" fill="#023A9D"/>
</g>
<defs>
<clipPath id="clip0_85_218">
<rect width="331" height="19" fill="white" transform="translate(0.5)"/>
</clipPath>
</defs>
</svg>
